<?xml version="1.0" encoding="UTF-8"?>
<svg width="248px" height="233px" viewBox="0 0 248 233" version="1.1" xmlns="http://www.w3.org/2000/svg" xmlns:xlink="http://www.w3.org/1999/xlink">
    <!-- Generator: Sketch 63.1 (92452) - https://sketch.com -->
    <title>peep-34 copy 2</title>
    <desc>Created with Sketch.</desc>
    <g id="Introduction" stroke="none" stroke-width="1" fill="none" fill-rule="evenodd">
        <g id="Artboard" transform="translate(-119.000000, -216.000000)">
            <g id="a-person/bust" transform="translate(138.000000, 165.000000)">
                <g id="body/Striped-Pocket-Tee" transform="translate(31.056338, 135.052838)" fill-rule="evenodd">
                    <path d="M86.4413905,-6.19333082 C97.7771652,-7.00539334 113.318855,-4.75756535 116.597517,8.17278953 C117.614348,12.8779691 119.617799,14.9431518 122.983714,18.0203968 C144.348785,45.3767661 69.8057567,49.9748558 65.9737849,23.298909 C57.9008272,26.2402811 49.1129398,26.8631375 41.0351229,29.836044 C36.6540666,31.4550897 32.6813905,34.0097956 28.8745596,36.6809035 C13.3508272,47.7109432 -1.95318692,59.0559032 -17.4215672,70.1650962 C-11.4357221,72.9225532 -0.0551587538,83.4507946 -4.6924827,90.5254951 C-5.77273878,91.9035919 -7.37625874,92.8536233 -8.79471418,93.8609266 L-9.5426996,94.3951899 C-11.1518379,95.5487563 -13.8606253,97.5149576 -15.358539,98.5834749 L-15.6347882,98.7846738 C-15.7431024,98.8630901 -15.8652955,98.9511557 -15.9756517,99.0300352 C-5.17353904,114.82917 7.46850322,129.40693 21.4916018,142.422364 C22.6856863,143.532839 22.1966018,146.015799 20.4684328,146.304899 L18.4095788,146.60717 C11.7617085,147.575774 4.9875217,148.447529 -1.71170805,147.921617 C-8.23628551,147.211565 -12.1679757,141.433794 -16.6282573,137.248402 C-25.5350883,128.1409 -33.8262855,118.425991 -41.3782573,108.163146 L-41.535505,107.946626 C-43.8859158,104.733458 -47.0056417,101.449599 -47.2339616,97.3005134 C-47.65037,96.0531075 -46.554525,94.2655964 -45.5015672,93.4152271 L-45.1420919,92.8962104 C-39.494612,84.7708564 -33.1030197,76.9349161 -25.0952292,71.0505978 C-25.1250179,70.1737734 -24.7198066,69.2520814 -23.9174123,68.6711297 L9.5490666,44.442799 L9.5490666,44.442799 C18.1839962,38.4980442 26.2098412,31.5115975 35.5694187,26.71118 C45.1398412,22.1014501 55.9400525,21.9202863 65.7477286,18.0730951 C65.9556159,15.3001884 71.7830103,14.5924644 71.5989962,15.020612 C77.7475173,11.3080239 80.9127286,6.89067467 81.8889962,2.83078535 C82.8650525,-1.22910397 81.6519539,-4.93153339 86.4413905,-6.19333082 Z M169.201398,80.7921311 C179.549707,65.2152185 189.413581,82.4496952 193.72175,92.8369844 C198.81182,107.051994 188.270834,124.537899 181.461257,136.792487 C178.953088,140.195658 175.654355,147.37385 171.233369,147.894273 C160.095341,147.84877 148.941891,147.064221 137.797102,146.83057 C130.600905,145.044541 140.697383,134.226141 147.67175,138.177671 C149.784848,138.968569 150.840553,141.368566 152.901045,142.138513 C153.65178,142.298844 153.703557,141.963852 154.008938,141.215961 L154.052243,141.111424 C154.596679,139.817246 155.124637,138.516083 155.660834,137.218519 C160.198229,126.040331 164.99506,114.960556 169.764637,103.885648 C170.783581,101.481207 169.354567,99.5000452 167.496891,98.0689358 C166.074426,96.8977203 159.959707,94.0382528 165.720975,95.2968756 C163.502454,90.145559 166.168229,84.9169939 169.201398,80.7921311 Z M143.509355,59.4689609 C144.505693,59.3445166 145.785341,60.3489598 145.938722,61.3220803 C147.20963,69.3883898 145.793615,77.3632263 144.096072,85.2537377 L143.783597,86.6985398 C143.15744,89.5764794 142.457785,92.5109298 140.896186,95.0333627 C139.302595,97.6077512 136.89182,99.5478547 134.124214,100.727324 C125.245693,104.266791 114.204003,100.766478 107.672665,94.149131 C103.494214,88.4236352 107.167524,81.2310512 107.868722,74.9557148 C107.205869,73.2648336 106.961607,71.3090112 106.578308,69.5655768 L106.531609,69.3574146 L105.042383,62.8537187 C104.714074,61.4192231 105.759003,59.4562625 107.476186,59.6532993 C119.449144,61.0270542 131.550975,60.9652554 143.509355,59.4689609 Z" id="âœ‹-Skin" fill="#EDB98A"></path>
                    <rect id="ðŸ‘•-Top" fill="#FDEA6B" x="104.36563" y="59.8121366" width="42.0422535" height="42.2700587"></rect>
                    <path d="M185.323334,78.7541531 C185.287419,78.5937382 185.479672,78.4709437 185.60432,78.5916247 C187.710658,80.6224897 189.197982,83.2178713 190.831081,85.6230376 C192.38601,87.9140748 194.078264,90.1163448 195.238123,92.6443057 C196.315588,94.9943096 197.010658,97.3783409 197.2177,99.9610415 C197.424743,102.524932 197.156433,105.094951 196.70432,107.620376 C195.814883,112.595562 193.913475,117.30656 191.826151,121.882505 C189.796763,126.330819 187.503682,130.652511 185.082134,134.895679 L184.214282,136.410551 C183.155666,138.254932 182.085414,140.095844 180.939531,141.882584 C179.513475,144.105989 178.212067,146.401253 176.331785,148.256908 C174.996574,149.577848 172.480376,148.256908 173.088827,146.369339 C173.352912,145.547398 173.559954,144.773644 173.969813,144.01067 C174.280376,143.429456 174.631081,142.865151 174.960658,142.292603 C175.619813,141.147085 176.27263,139.997339 176.931785,138.85182 C178.315588,136.444541 179.773334,134.081644 181.144461,131.66591 C183.523334,127.476948 185.769109,123.209574 187.755024,118.817926 L187.988752,118.299549 C189.816047,114.232753 191.547623,110.02031 192.350095,105.621002 C193.195165,100.986302 192.438827,96.6176912 190.793053,92.2615503 C189.941644,90.0085562 188.984602,87.8062861 187.989531,85.6124701 L187.798275,85.1934692 C186.837281,83.0995068 185.818493,81.0169221 185.323334,78.7541531 Z M83.0381018,-1.41534596 C83.0571159,-1.49756122 83.1965525,-1.50390173 83.2092286,-1.41534596 C83.8007779,2.52041921 82.4845807,6.68380864 80.3402145,9.95762469 C79.169792,11.7456482 77.7268342,13.3603644 76.02613,14.6580552 L75.8937025,14.758058 C74.1563258,16.0574004 71.8088589,17.3121446 69.6521863,16.4695386 C69.5845807,16.4437538 69.5212004,16.4143762 69.4620455,16.3807715 C69.7050032,16.7567636 69.9289469,17.1519887 70.1571159,17.5472137 C70.8352849,18.7244349 71.4437356,19.9439261 72.1050032,21.1317147 C73.2881018,23.2557852 74.6972567,25.1558243 76.4782427,26.8191511 C83.599968,33.4689055 93.5998743,35.0494217 102.991035,34.9737291 L103.654424,34.9674482 C107.779565,34.9384112 113.174623,35.1490854 116.359229,32.1622979 C118.070496,30.5581491 119.01275,28.2774681 119.864158,26.1364897 C120.700778,24.0377812 121.273313,21.8714407 121.968383,19.7368028 C120.516975,18.7415542 119.185989,17.52629 118.140214,16.1058047 C117.050074,14.6263527 116.22613,12.9609124 115.750778,11.1834564 L115.680661,10.9178928 C115.313061,9.5005019 114.943482,7.62550101 115.535285,6.28647009 C115.602891,6.13218437 115.856412,6.14275189 115.928243,6.28647009 C116.247257,6.92686148 116.308524,7.64967948 116.505003,8.33445443 C116.733172,9.13124504 116.990919,9.92380864 117.33106,10.6783292 C117.988102,12.1408732 118.856412,13.5315582 119.897961,14.7489358 C120.75782,15.7568654 121.68951,16.682791 122.754299,17.4605601 C123.381764,16.3763331 124.837398,16.2305014 126.056412,16.5876834 C127.690435,17.065203 129.302175,17.6783252 130.877708,18.3260447 L131.192327,18.45602 C132.749369,19.1027519 134.509229,19.6966462 135.966975,20.5779769 C136.852186,21.0006775 137.701482,21.4254916 138.500074,21.8016951 C142.479229,23.6717225 146.399491,25.6558979 150.302087,27.6786135 L151.138102,28.1126149 C152.773313,28.9643566 154.393736,29.8245523 155.815567,31.0123409 C157.26275,32.2212646 158.386693,33.8740239 159.443031,35.4232216 C161.85782,38.9654525 164.133172,42.6091315 166.520496,46.170384 C171.341623,53.356294 176.16275,60.5422039 181.011341,67.7112059 C182.183876,69.4466032 183.506412,71.1393077 184.558524,72.9484662 C185.566271,74.6775229 185.538806,76.452654 185.342327,78.3822822 L185.305519,78.7366958 C184.928801,82.2762453 184.281082,85.6757081 182.295848,88.7109711 C179.1712,93.4832607 174.248665,96.4548458 169.040919,98.5005053 C169.676834,98.9741413 170.274722,99.485609 171.033172,99.8112998 C172.199369,100.309875 173.443736,100.567934 174.705003,100.671284 C176.050778,100.779284 177.567679,100.443026 178.65782,101.358173 C179.095144,101.723597 179.10782,102.603026 178.65782,102.968662 C177.609767,103.824423 176.255088,103.579148 174.978011,103.435763 L174.901482,103.427292 C173.716271,103.296255 172.547961,103.076451 171.434581,102.641069 C171.159933,102.533069 170.887398,102.412811 170.623313,102.27966 C170.631764,102.302908 170.635989,102.330595 170.631764,102.359973 C170.441531,103.816085 170.029272,105.19287 169.593882,106.584455 L169.317679,107.466196 C168.755707,109.266901 168.18951,111.063378 167.606412,112.859856 C166.496769,116.279829 165.288118,119.667386 164.075175,123.050788 L163.028299,125.970272 C161.952874,128.965402 160.863938,131.956372 159.660637,134.901578 C158.916975,136.718979 158.169088,138.536803 157.423313,140.352302 C156.69444,142.125531 156.088102,144.040364 155.183876,145.729053 C154.440214,147.119738 152.412045,146.124067 152.737398,144.69555 C153.164158,142.821085 153.969088,140.960991 154.583876,139.137038 C155.209229,137.285609 155.821905,135.432067 156.45782,133.584654 C157.563736,130.375694 158.788665,127.209438 160.019836,124.046123 L161.240022,120.910309 C162.437006,117.837969 163.648069,114.768365 164.942327,111.735683 L165.08377,111.403293 C166.428587,108.231109 167.816784,104.664092 170.259933,102.205899 C170.291623,102.172083 170.335989,102.154963 170.380355,102.150736 C169.780355,101.825257 169.218383,101.430032 168.724017,100.962948 L168.699924,100.938606 C168.504521,100.731647 167.697257,99.7117588 167.437398,99.1009515 C167.099369,99.2214212 166.761341,99.3376638 166.423313,99.4515816 C165.833876,99.6504623 165.345848,99.5067441 165.001482,99.1918321 L164.345522,99.5978576 C163.64425,100.026235 162.890214,100.432779 162.115567,100.453593 C161.13951,100.478955 160.372609,99.9400122 159.850778,99.1453351 C159.381764,98.4351981 159.102891,97.6679965 158.509229,97.0318321 C157.925567,96.4065171 157.249886,95.8787801 156.559482,95.3749037 L155.745712,94.782593 C154.253343,93.6927768 152.806571,92.591567 151.605003,91.152067 C151.000778,90.4250219 150.191623,89.5627128 149.824017,88.6896247 C149.752186,88.5209672 149.70782,88.3624544 149.699369,88.2079574 C149.619088,88.7532411 149.536693,89.3006384 149.454299,89.8459221 C148.300778,97.5200513 147.369088,105.247018 147.0712,113.007801 C146.925426,116.835143 146.859933,120.667135 147.03106,124.496591 C147.115567,126.409523 147.255003,128.32013 147.447257,130.226509 C147.542327,131.181813 147.641623,132.135002 147.75782,133.086079 L147.784643,133.30637 C147.818243,133.597817 147.840214,133.879741 147.814862,134.147057 C148.74444,134.605476 149.278947,135.763887 149.650778,136.668466 C149.933876,137.357468 149.714158,138.027449 149.25782,138.511441 C149.802891,139.008114 150.288806,139.591441 150.696553,140.259096 C150.778947,140.394572 150.601482,140.500247 150.495848,140.415707 C149.82613,139.883104 149.105707,139.445609 148.353595,139.109562 C147.958524,139.259621 147.527538,139.299777 147.130355,139.189875 C146.699369,139.071519 146.327538,138.784083 146.059229,138.418658 C143.923313,138.067605 141.702891,138.496646 139.780355,139.834494 C139.38106,140.113476 139.019792,140.428388 138.675426,140.770564 C138.616271,140.830165 138.555003,140.90604 138.493736,140.980012 L138.913154,141.141224 C139.086923,141.207106 139.229551,141.258693 139.283876,141.269562 C139.650074,141.344239 140.021905,141.384161 140.393736,141.416255 L140.950778,141.461891 C143.090919,141.639425 145.224722,141.698603 147.214862,142.594728 C147.633172,142.78283 147.487398,143.427449 147.092327,143.535026 C145.639088,143.929546 144.196891,143.898958 142.71764,143.793461 L142.400074,143.769836 C141.024722,143.664161 139.547961,143.670501 138.206412,143.290071 C138.527538,144.169077 138.090214,145.31692 136.748665,145.496568 C132.719792,146.033398 128.665567,145.779989 124.632468,145.424709 C120.559229,145.065413 116.488102,144.725139 112.404299,144.511887 C99.1944998,143.81667 85.9644556,143.950134 72.7428109,144.138878 L65.2711977,144.247108 C59.3126795,144.331163 53.3531154,144.396644 47.3947717,144.350933 L44.6057845,144.324931 C43.4270598,144.313497 42.2477161,144.299152 41.0703325,144.264508 L40.3641581,144.241147 C38.9613412,144.190423 37.104299,144.401773 35.8852849,143.570955 C34.8796511,142.886392 34.6557074,141.630971 35.2620455,140.618815 C35.4373976,140.32694 35.6782427,140.066979 35.9296511,139.813359 C36.4451441,135.406916 36.7345807,130.978916 37.0303553,126.553241 C38.0571159,111.065703 37.4571159,95.6580552 35.088806,80.3267049 C28.7338765,82.2692255 22.47613,84.705883 16.3789469,87.3202861 C13.0810596,88.7342196 9.80007364,90.2009906 6.55711589,91.7396208 C3.59725674,93.1451002 0.624721528,94.9014212 -2.53795453,95.8144544 C-2.82545453,96.0696599 -3.22743149,96.1911273 -3.58397339,96.0778492 L-3.63020805,96.0617343 L-3.63232073,96.0617343 C-3.95767284,96.1378204 -4.31894044,96.0913233 -4.67387002,95.8778595 C-4.74570101,95.8343214 -4.81753199,95.7905953 -4.88936298,95.7456169 L-4.99710946,95.6770767 C-6.11048974,94.9753938 -7.23020805,94.1109711 -8.01823622,93.0542196 C-8.97527847,93.9418908 -10.0041517,94.7558008 -11.0161235,95.5798556 C-12.1147151,96.4759809 -13.2090813,97.3763331 -14.2949968,98.2851394 C-14.7259827,98.6465484 -15.2013348,98.9910493 -15.5816165,99.4074094 L-15.6368591,99.4685288 C-15.645701,99.4784701 -15.6541517,99.4883566 -15.6618982,99.49829 C-14.0161235,100.563496 -12.5752785,102.180325 -11.2844334,103.585805 C-9.89830664,105.094212 -8.56009537,106.650724 -7.23283622,108.21328 L-5.94794787,109.728933 C3.13789758,120.462076 12.3166934,131.584308 24.0796511,139.473085 C25.938806,140.720051 24.1662708,143.757155 22.319792,142.482713 C18.8254258,140.075433 15.5190877,137.401852 12.3437356,134.588568 C6.77894688,129.662204 1.77190463,124.135394 -2.91612354,118.376098 C-5.28865875,115.461366 -7.59147566,112.475409 -9.84781368,109.469797 L-10.6136165,108.450328 C-11.6341235,107.090584 -12.6492221,105.726783 -13.6210531,104.331871 L-13.82439,104.03952 C-14.6768289,102.808989 -15.5833379,101.426588 -16.133025,100.009758 C-16.3442926,100.223222 -16.583025,100.402658 -16.9316165,100.538133 C-17.5273911,100.770619 -18.2583771,100.2824 -18.4041517,99.7011863 C-18.7590813,98.2914799 -17.5337292,97.4524192 -16.5365461,96.7040278 C-15.3259827,95.7996599 -14.0921799,94.9267832 -12.8562644,94.0581335 L-12.4147972,93.7458875 C-10.8692586,92.6493979 -9.31560303,91.5239516 -7.6316165,90.6575073 C-7.58091227,90.5898752 -7.51964467,90.5264701 -7.44992636,90.471519 C-7.36964467,90.4081139 -7.29147566,90.3468223 -7.21119397,90.2855308 C-9.22246157,87.0222822 -11.4280954,83.8858439 -13.889363,80.9225014 C-15.7400672,78.6931785 -17.7048559,76.5646697 -19.7837292,74.5483879 L-20.7176177,73.6438213 C-22.1302313,72.2790447 -23.5990301,70.8947177 -25.1668278,69.7084662 L-25.6576278,70.2651459 C-26.3129968,71.0066642 -26.9748559,71.7425014 -27.6745742,72.439112 C-29.052039,73.8086619 -30.4104897,75.2058987 -31.7626024,76.6027128 C-34.0080753,78.9269621 -36.1774918,81.3226393 -38.3400344,83.7217325 L-39.4210531,84.921249 C-41.6731658,87.4215229 -44.0858419,89.8755112 -46.133025,92.5467675 L-46.2352623,92.6819794 C-47.129018,93.8811477 -47.7652401,95.2083018 -47.3499264,96.7317147 C-46.9491994,98.2002584 -45.9964507,99.5025368 -45.1752451,100.770719 L-45.0935883,100.897429 C-41.7407714,106.122008 -38.1492221,111.213437 -34.302039,116.085272 C-26.5971095,125.843315 -17.8083771,135.091793 -7.32105312,141.876137 C-5.86753199,142.816646 -7.2259827,145.15418 -8.6816165,144.203104 C-14.8062644,140.198016 -20.4323207,135.387895 -25.6083771,130.222282 C-30.3597855,125.481695 -34.6654193,120.261343 -38.7006306,114.903613 C-40.667532,112.28921 -42.552039,109.619856 -44.3583771,106.891535 C-46.1097855,104.243104 -48.1358419,101.51901 -49.4055602,98.5979378 C-50.0704225,97.0614212 -50.3161235,95.3980944 -49.7710531,93.7791511 C-49.2711812,92.291245 -48.2826117,91.0557328 -47.2541904,89.8933912 L-47.1576728,89.7846306 C-44.7935883,87.1279574 -42.3872503,84.5029867 -39.9597855,81.9033781 C-37.52387,79.2953155 -34.9759827,76.780247 -32.3752785,74.3391511 C-30.3323207,72.4179769 -28.2027433,70.7248497 -25.9252785,69.1568419 C-26.130208,69.0110102 -26.3351376,68.871519 -26.5442926,68.7362548 C-27.180208,68.3220082 -27.3407714,67.4364505 -26.783025,66.8742587 C-25.2597855,65.3354173 -23.5041517,63.9975699 -21.852039,62.5967401 C-20.2992221,61.2798165 -18.7464052,59.9609906 -17.1935883,58.6421648 C-14.033025,55.9622431 -10.8724616,53.2802079 -7.71189819,50.5981726 C-2.03513763,45.7814994 3.6099328,40.9310102 9.26767927,36.093202 C11.6268342,34.0765679 14.0079962,32.084885 16.3830451,30.0875758 L20.602734,26.5350807 L20.602734,26.5350807 L22.6665693,24.8017235 C23.7239987,23.9157215 24.8039316,23.0395646 26.0064117,22.3638869 C28.8357901,20.7739354 32.2373433,20.0860681 35.3546552,19.243691 L35.5620455,19.187292 C39.0585243,18.2300865 42.5740173,17.3295229 46.1085243,16.5263918 C49.6472567,15.7232607 53.2007779,14.9919887 56.7690877,14.3302509 C59.97613,13.7344544 63.2592286,13.2229867 66.5296511,13.1469006 C67.3409187,12.8383292 68.3592286,12.7305405 69.1578201,13.060247 C69.4873976,13.1976247 69.8317638,13.3984075 70.1381018,13.6520278 C71.7373976,13.089836 73.3155666,12.8214212 74.8092286,11.8703448 C76.3007779,10.9215934 77.6212004,9.67441529 78.732468,8.30063839 C81.0289469,5.45586344 82.2310596,2.09539377 83.0381018,-1.41534596 Z M119.800778,94.9162157 C118.533172,94.8276599 117.392327,95.3515973 116.259933,95.9095621 C116.897961,96.186431 117.535989,96.4611863 118.174017,96.7338282 L122.420496,98.5472137 L122.420496,98.5472137 C123.823313,99.1453351 125.308524,99.6652568 126.641623,100.402658 C126.736693,100.455496 126.81275,100.519112 126.869792,100.593085 C128.255707,99.7056247 129.721905,98.9130611 131.126834,98.0695621 C131.447961,97.8772333 131.7712,97.6849045 132.09444,97.4925758 C130.4212,98.052654 128.705707,98.3337499 126.888806,97.8074877 C124.465567,97.1079182 122.361341,95.0958634 119.800778,94.9162157 Z M123.274017,90.6638478 L123.046317,90.508992 C121.81679,89.6653281 120.349701,88.5808042 118.856412,89.3386814 C118.152891,89.6958634 117.57613,90.2728497 116.883172,90.6575073 C116.185989,91.0463918 115.419088,91.3443957 114.641623,91.5240435 C113.350778,91.8220474 111.871905,91.866431 110.483876,91.5787832 L110.505003,93.4557852 L110.505003,93.4557852 C111.555003,93.8890533 112.598665,94.3331002 113.642327,94.7809515 C114.31992,94.5492347 114.972056,94.2708287 115.657749,93.9654125 L116.120496,93.7580161 C117.440919,93.1639104 118.774017,92.7669946 120.233876,92.954885 C122.982468,93.30784 125.059229,95.3515973 127.687398,96.0321452 C130.909229,96.8693037 133.816271,94.4639261 136.860637,93.8700317 C137.362609,93.7711198 137.879982,93.7132944 138.394275,93.7042591 L138.565567,93.703065 L138.641623,93.6586814 C139.296553,93.2740239 140.276834,92.9064857 140.733172,92.2595425 C141.229651,91.5578595 141.271905,90.3827519 141.434581,89.5584857 C141.451482,89.4760591 141.468383,89.391519 141.483172,89.3090924 C141.195848,89.3090924 140.904299,89.3236756 140.608524,89.378838 C139.678947,89.5500317 138.804299,89.8797382 137.938102,90.2476991 C136.300778,90.9428302 134.699369,91.7353938 132.975426,92.1982509 C131.287398,92.6524427 129.523313,92.8682313 127.784581,92.6167245 C126.088102,92.3713468 124.678947,91.6064701 123.274017,90.6638478 Z M123.538526,84.0651918 L123.284017,83.9012205 C122.612557,83.4726356 121.842468,83.0286493 121.019792,83.1862744 C120.284581,83.3278791 119.652891,83.9133194 119.01275,84.2747284 C117.60782,85.067292 116.031764,85.5005601 114.424017,85.6104623 C113.086693,85.7013429 111.698665,85.5386032 110.412045,85.1412646 L110.456412,89.2966227 L110.456412,89.2966227 C110.927538,89.4464701 111.415567,89.5542587 111.928947,89.5923018 C113.488102,89.7085445 115.009229,89.3344544 116.316975,88.4742587 L116.97855,88.0348728 C118.11063,87.2907585 119.172898,86.7001957 120.6712,86.9717695 C122.154299,87.2420865 123.398665,88.1931628 124.611341,89.021656 L124.810194,89.1552378 C126.202859,90.0749796 127.61451,90.6687473 129.322609,90.6828693 C131.166975,90.6974525 132.990214,90.1840826 134.70782,89.5521452 C136.41275,88.9267597 138.033172,88.1762548 139.856412,87.945883 C140.414158,87.8761374 141.09444,87.8550024 141.734581,87.9649045 C141.819088,87.4935934 141.899369,87.0246071 141.975426,86.5530846 C142.140214,85.5407167 142.281764,84.5304623 142.404299,83.5180944 C139.169792,82.6473311 136.182468,85.4646306 133.178243,86.3332803 C131.435285,86.836294 129.538102,86.8301648 127.795144,86.3438478 C126.18238,85.8936122 124.914605,84.9590125 123.538526,84.0651918 Z M123.546553,77.0676834 C122.855707,76.9345327 122.173313,77.2536717 121.585989,77.5812646 C120.088102,78.4120826 118.795144,79.5679574 117.098665,80.0054525 C114.916271,80.5676443 112.528947,80.0836521 110.361341,79.1642783 C110.369792,80.4469632 110.380355,81.7300709 110.390919,83.0129672 C110.798665,83.1674642 111.216975,83.2919495 111.643736,83.3912842 C113.160637,83.7378987 114.768383,83.6914016 116.262045,83.2539065 C117.785285,82.807746 118.953595,81.6032607 120.48106,81.2270572 C122.04298,80.8410931 123.515293,81.5919687 124.774026,82.4455265 L125.152885,82.7041089 C126.591717,83.6808717 127.987116,84.5296169 129.787398,84.6953155 C131.690919,84.8707362 133.345144,84.2747284 135.045848,83.4844897 L135.441737,83.3011631 C137.594942,82.3117522 140.390049,81.1854087 142.53951,82.3112842 C142.708524,80.713476 142.83106,79.1158791 142.913454,77.515746 C142.617679,77.4058439 142.311341,77.3255308 141.958524,77.3234173 C141.115567,77.3194016 140.230355,77.5854916 139.44444,77.8623605 C137.726834,78.4689358 136.127538,79.3733037 134.426834,80.0223605 C132.814862,80.6395034 131.029651,80.9607558 129.309933,80.6840983 C127.716975,80.4281531 126.5212,79.5954329 125.420496,78.4541413 L125.260615,78.2854415 C124.777905,77.7716701 124.261482,77.2065405 123.546553,77.0676834 Z M124.80782,71.1350807 C124.011341,70.7147049 123.041623,70.3234955 122.120496,70.4460787 C121.241623,70.5620194 120.65591,71.1585069 120.1147,71.7960226 L119.821601,72.1450039 C118.853457,73.2909119 117.900499,74.2543652 116.40782,74.7259221 C114.861341,75.2120278 113.221905,75.0218126 111.783172,74.3095621 C111.271905,74.0559417 110.796553,73.7410298 110.319088,73.4303448 L110.34444,76.8011707 L110.34444,76.8011707 C111.299369,77.2767088 112.2712,77.7059613 113.338102,77.9659221 C115.307116,78.4456873 116.980355,78.0906188 118.664158,77.0042783 L118.840939,76.8891591 C120.109194,76.0559877 121.409557,75.0639887 122.97613,74.9710885 C124.50491,74.8795698 125.652224,75.7274125 126.659021,76.7651215 L126.776834,76.8880356 C128.046553,78.2277852 129.328947,78.8810689 131.217679,78.7267832 C133.04881,78.5770353 134.762518,77.7682639 136.439933,77.071516 L136.592327,77.0085053 C138.12613,76.3784701 139.89444,75.729836 141.578243,75.9707754 C141.981764,76.02784 142.503595,76.1525366 142.968383,76.3702274 C143.035989,74.7933429 143.067679,73.2147675 143.074017,71.6338673 C142.116975,70.803472 140.627538,70.665883 139.429651,71.006157 C137.553595,71.5387597 136.017679,72.9125366 134.22613,73.6586032 C132.637398,74.3201296 130.98106,74.4680748 129.360637,73.8422666 C127.687398,73.195746 126.375426,71.9635738 124.80782,71.1350807 Z M142.968383,64.4944544 C140.164862,64.5916756 137.422609,66.4156286 134.745848,67.1109711 C131.755688,67.8871767 129.315284,66.8290451 126.651587,65.6543465 L126.30782,65.5028067 C124.940919,64.9025719 123.472609,64.3634173 121.95782,64.6085836 C120.48106,64.8497343 119.175426,65.6674486 117.905707,66.4071746 L117.662369,66.5473418 C115.349303,67.864642 112.994058,68.7664099 110.293736,68.5416012 C110.308524,69.3893272 110.302186,70.2347284 110.304299,71.0632216 C110.747961,71.3168419 111.174722,71.6042783 111.580355,71.8663527 L111.725936,71.9586557 C113.013315,72.7639409 114.340394,73.2932361 115.875426,72.796294 C117.358524,72.3144153 118.055707,71.023065 119.074017,69.959973 C120.009933,68.9835347 121.23106,68.3898517 122.600074,68.4467049 C124.072609,68.5056717 125.464862,69.1547284 126.681764,69.947292 C127.898665,70.7398556 129.075426,71.7646932 130.499369,72.1622431 C133.693736,73.049703 136.429651,69.6704231 139.450778,69.1441609 C140.718383,68.9222431 142.116975,69.203339 143.074017,69.9682157 C143.063454,68.1465875 143.023313,66.320521 142.968383,64.4944544 Z M118.837398,63.7293664 C118.442327,63.7441609 118.047257,63.7610689 117.652186,63.7779769 C116.190214,63.841382 114.728243,63.9132411 113.266271,63.9956677 C112.254299,64.0504075 111.009933,64.3613037 110.016975,64.0527323 C109.991623,64.1541805 109.95782,64.2516129 109.913454,64.3465092 C110.063454,65.0946893 110.156412,65.8682313 110.213454,66.6502274 C111.130355,66.7495621 112.062045,66.715746 112.966271,66.5276443 C115.135989,66.0774681 116.897961,64.7079182 118.837398,63.7293664 Z M142.92613,63.101656 C137.58756,63.4694868 132.207971,63.3429424 126.860611,63.4585501 L126.219088,63.4736325 C126.193736,63.4736325 126.168383,63.4759574 126.143031,63.4759574 C126.756236,63.7137264 127.364686,63.9858532 127.971057,64.2630919 L128.576834,64.5409515 C130.009229,65.2003644 131.466975,65.7393077 133.070496,65.623065 C134.788102,65.4983683 136.406412,64.7968967 138.012045,64.2302666 C139.543736,63.6892098 141.30782,63.3256873 142.940919,63.5623996 C142.936693,63.4081139 142.932468,63.2559417 142.92613,63.101656 Z" id="ðŸ–-Ink" fill="#000000"></path>
                </g>
                <g id="head/Short-4" transform="translate(78.591549, 38.043053)" fill-rule="evenodd">
                    <path d="M85.4943943,64.251081 C85.0405732,60.2533902 85.6278941,51.8974356 85.6672478,51.3897816 C85.9160381,48.18044 84.4160565,35.5072297 81.5804834,36.6749401 C76.823885,32.9000125 70.4885155,32.066447 64.5644551,31.668263 C52.2592762,30.841038 39.1688119,32.7400204 29.6670524,41.0418599 C24.9680718,45.3531945 20.3933903,51.6237464 20.7611085,58.1527796 C16.4917798,64.3415389 10.4729845,72.8308462 15.7923816,80.0660008 C17.600545,82.3775389 20.4743142,83.2383687 22.7457939,84.9889832 C27.3146488,88.6833863 30.1810809,93.9853198 34.7933111,97.6577425 C47.0126027,108.6655 67.7610567,110.964991 79.7664935,98.4445996 C89.0500822,89.3768266 87.5489743,75.8110967 85.9160381,64.251081 C84.8182032,56.4791984 86.3797524,72.0501615 85.4943943,64.251081 Z" id="âœ‹-Skin" fill="#EDB98A"></path>
                    <path d="M48.1264218,14.7152853 C51.4173516,14.0495319 54.7966157,13.6352853 58.1573275,13.759982 L58.4164378,13.7700709 C60.9450634,13.8713845 64.1473678,14.0955006 66.3532394,15.5695632 C66.4801542,15.4419076 66.6842298,15.376389 66.8693314,15.4649448 C69.4906909,16.7193088 72.3738911,17.6262129 75.1339713,18.5274106 C77.8814022,19.4241699 80.7317142,20.016162 83.6113305,20.2547765 C84.6947442,20.3446004 85.6219388,21.5173832 84.9359244,22.5692736 C84.7727483,22.819935 84.6137886,23.0731327 84.4554613,23.3269644 C84.7202536,23.2992775 84.9850459,23.2707452 85.2498382,23.2439037 C86.1211651,23.155982 86.9916487,24.0882481 86.9399973,24.9387217 C86.9077416,25.4736493 86.8501872,26.0022364 86.7650152,26.524483 C87.0968488,26.5175084 87.4267851,26.5673871 87.7455478,26.7024399 C89.3596002,27.3857354 89.2472321,29.3130387 89.1264312,30.7793871 C88.9590386,32.8142677 88.199869,34.969618 86.7903138,36.4926082 C87.8427367,37.5884595 88.5877812,38.8971405 89.0321938,40.4514106 C89.3545405,41.5863616 89.5339499,42.7952853 89.4454047,43.9767335 L89.417177,44.3304531 C89.3076757,45.6125551 89.089968,47.0320043 88.1699323,47.954346 C87.6976912,48.4298841 87.1158228,48.6031914 86.5611504,48.5482403 C86.896568,51.5029174 87.1116063,54.4745025 87.3139954,57.4355202 L87.4088998,58.8507542 C87.8603685,65.6942495 88.1996513,72.5823139 88.1109021,79.4370857 C88.0284708,85.8431131 86.7658584,92.0610387 82.8466794,97.2623695 C79.277254,101.99873 74.1523846,105.490236 68.3547825,106.817516 C65.230402,107.533994 62.0406668,107.584718 58.8783384,107.128201 C57.3454524,106.906283 55.802447,106.566009 54.3475651,106.02918 C52.7370966,105.433172 51.5796844,104.556068 50.4960599,103.241469 C49.9835519,102.617986 50.2302135,101.290706 51.2508023,101.415403 C52.794306,101.603024 54.2033455,101.82916 55.6831009,102.286822 L55.8949978,102.353798 C57.3688536,102.827223 58.8952041,103.180178 60.4361014,103.330236 C63.5923159,103.636694 66.7965979,103.328123 69.8199947,102.368593 C74.7426859,100.8046 78.9823141,97.3194341 81.6998083,92.940256 C84.9253833,87.7494928 85.2901052,81.8570466 85.2435135,75.8885143 C85.193582,69.3391024 84.9811156,62.7858967 84.6342574,56.2432737 L84.5752081,55.152937 C84.3917931,51.7861268 84.2147027,48.4172031 84.0589053,45.0482795 C84.0104163,43.991528 83.9366286,42.9263225 83.8036,41.8716845 C82.5873685,41.1573205 81.4974193,40.1724282 80.7869495,38.957164 C79.3596853,39.5489448 77.8586334,39.9758724 76.4775392,40.3161464 C73.2785278,41.1049057 69.9572397,41.296389 66.7010956,40.8024634 C65.8228116,41.1661973 64.9270293,41.4859703 64.0175437,41.7611483 C63.7717254,41.8704164 63.525907,41.9777824 63.2802995,42.0830348 C61.087541,43.0235436 58.86337,43.8203342 56.5487565,44.4036611 L55.9801343,44.5458152 C54.7620366,44.846846 53.4389419,45.143291 52.1425789,45.2363812 C51.9296488,45.3188078 51.6998529,45.3885534 51.448764,45.449845 C50.2683723,45.7372814 49.0432862,45.828162 47.8333794,45.7267139 C46.6546742,45.6273793 45.8029537,44.4332501 46.4522852,43.315207 C46.9266344,42.4993949 47.4054109,41.6856963 47.8881931,40.8741112 C46.2079426,41.5757941 44.4728784,42.1591209 42.7230567,42.6536806 C40.9563692,43.1524673 39.1643831,43.5730544 37.370078,43.9598254 C36.4108384,44.1648352 35.4475932,44.3465965 34.4904618,44.5516063 C33.8052906,44.697438 32.7532894,44.7735241 32.1944005,45.2258137 C31.5769032,45.7224869 31.401921,46.8806865 31.1676979,47.5950505 C30.8598979,48.5228783 30.5710719,49.4549331 30.3075446,50.3975554 C29.7828089,52.278573 29.3527322,54.1870661 29.0196336,56.1145808 C28.686535,58.044209 28.462853,59.9928587 28.3384681,61.9478489 C28.214294,63.9007256 28.2688969,65.8662834 28.0688269,67.8107061 C27.9610969,68.8420955 26.856601,69.3725847 26.0407203,68.6518802 C25.9450071,68.5673401 25.8485444,68.4818607 25.7530187,68.3954419 L25.6106436,68.2651092 C24.9126123,67.6310583 24.235874,66.9589644 23.6774068,66.2023303 C23.5762123,66.0628391 23.4792343,65.9170074 23.3885809,65.7690622 C23.3738233,65.7690622 23.361174,65.7648352 23.3464165,65.7542677 L23.191566,65.6374521 C21.4865122,64.3651622 18.6379414,62.7064485 16.9753789,64.8200994 C16.4455912,65.4934458 16.1743453,66.3508322 15.949221,67.1779997 L15.554201,68.6583873 C15.2986936,69.6247961 15.0582348,70.5965847 14.9175464,71.5854223 C14.5992053,73.8003734 14.7594299,76.3534849 16.2796666,78.1288274 C16.8868337,78.8389644 17.7237966,79.3462051 18.6575267,79.4793558 C19.1784676,79.5512149 19.6928731,79.4624477 20.2093867,79.3969292 C20.7343332,79.3314106 21.2400949,79.4370857 21.7652523,79.3863616 C22.600107,79.303935 22.9648288,80.3057354 22.6528124,80.9355593 C22.4841549,81.2737198 22.2857715,81.5653832 22.0604029,81.812663 C22.2414989,81.9690622 22.4145837,82.1381425 22.581133,82.3156767 C23.0744562,82.4741894 23.5169714,82.8144634 23.8481726,83.2646395 C24.1159164,83.628162 24.254848,84.0233871 24.2782492,84.4397472 C24.3075535,84.5433088 24.3328521,84.648984 24.3562533,84.7567726 L24.8085473,85.4926774 C24.9080248,85.6540814 25.0071449,85.8135241 25.1065685,85.9699233 C26.257656,87.7875358 27.5354475,89.3261659 29.1229364,90.776029 C30.6513951,92.1709409 32.3103526,93.4200211 33.7462605,94.9163812 L33.9154091,95.0940463 C35.254057,96.5081781 36.6650896,98.2200148 36.1411972,100.276225 C36.0062712,100.8046 35.2702919,101.185031 34.7898288,100.827849 C33.2445044,99.6781033 32.4663608,97.8562638 31.1552594,96.4613519 C29.8057885,95.0241699 28.3110612,93.7328196 26.9577955,92.2998646 C25.6778958,90.9472227 24.6680589,89.4149331 23.9072027,87.7283577 C23.6034084,88.0644047 23.1608932,88.3032305 22.5474015,88.3962247 C21.493292,88.5547374 20.5106512,87.935481 20.0512703,87.0203342 C19.7559088,87.1513714 19.4546443,87.2697276 19.15085,87.3627217 C17.55282,87.8530544 16.5474104,86.0713714 17.150361,84.7546591 C17.4727077,84.0487491 17.8753775,83.4358333 18.3752362,82.9201386 C16.8128352,82.7045613 15.2232381,81.8950896 14.1965355,80.8848352 C11.6205028,78.3465182 11.266322,74.5316454 11.8460822,71.1394732 C12.1538822,69.3408822 12.6849425,67.5211562 13.3745409,65.8324673 C13.4944986,65.5386904 13.6233108,65.2428 13.7643506,64.9511366 C13.6863465,64.9490231 13.6062342,64.915207 13.5556369,64.8496885 C13.0897205,64.2114106 12.5228205,63.6893753 12.1768617,62.9750114 C11.8585207,62.3198254 11.5045507,61.6561855 11.2534618,60.9735241 C10.737159,59.5764986 10.4841728,57.9998254 10.3155152,56.5224869 C9.96765912,53.4980642 10.1023743,50.492663 10.5642851,47.4872618 C11.3504399,42.3683577 13.2495235,37.4696806 16.0473409,33.1712384 C15.895007,33.0909856 15.7490236,32.9941182 15.6129753,32.8795713 L15.5457956,32.8208196 L15.4365899,32.7219076 C14.6382073,31.9976102 14.7071461,30.6401072 15.4365899,29.9065104 L15.666971,29.674999 C15.9586945,29.3844582 16.210264,29.1542724 16.6814931,28.8379233 C16.7510644,28.7912149 16.8221113,28.747254 16.8940016,28.7062521 C16.64734,28.2493127 16.5617463,27.7150192 16.7335661,27.1255632 C17.3323003,25.0720838 20.2795904,25.1447883 22.1476832,26.0402795 C24.2143702,24.1911757 26.5060042,22.5859703 28.9899077,21.2861659 C34.9057809,18.1919977 41.5949487,16.0341112 48.1264218,14.7152853 Z M17.5467694,68.7998254 C18.6514762,68.4384164 20.1187965,69.197164 21.1117677,69.6536806 C22.3703744,70.2327804 23.4413496,71.0887491 24.4785933,71.9933284 C24.9951069,72.445618 25.0876577,73.185344 24.9592672,73.8172814 C24.9464071,73.8806865 24.9339686,73.9462051 24.9190002,74.0117237 C24.781966,74.6859311 24.0314401,75.2164204 23.3673511,75.1973988 C21.9780348,75.1593558 21.3162649,73.9567726 20.5296884,72.9380642 C20.4371376,73.1029174 20.3211856,73.2550896 20.1776158,73.3692188 L20.0806694,73.4452938 C19.7542994,73.6944362 19.3945083,73.8935597 18.9632817,73.874346 C18.65759,73.8595515 18.3647584,73.7813519 18.0946955,73.6397472 C17.4200655,73.2825652 17.1230174,72.407575 17.3062217,71.6953245 C17.4200655,71.2472618 17.6814846,70.8964204 18.0230161,70.6533675 L17.8957064,70.5660741 C17.6233108,70.376026 17.3748706,70.175688 17.1812569,69.8800375 L17.1375641,69.8100798 L17.1544299,69.8100798 C16.943608,69.4465573 17.080853,68.9519977 17.5467694,68.7998254 Z" id="ðŸ–-Ink" fill="#000000"></path>
                </g>
                <g id="face/Smile" transform="translate(112.183099, 77.354207)" fill="#000000" fill-rule="evenodd">
                    <path d="M30.968993,50.9198978 C29.548794,50.3403012 28.2816173,49.3734958 27.3551889,48.1384646 C27.0331038,47.7091169 26.9495926,47.2557326 27.017159,46.8410547 C27.0931327,46.3747786 27.3688808,45.9521824 27.7449394,45.6687178 C28.1221628,45.3843752 28.5940214,45.2441445 29.0502103,45.3156301 C29.4466117,45.3777469 29.8412104,45.5948709 30.1535058,46.0451781 L30.2187521,46.1352289 C30.7695298,46.8806513 31.4872438,47.4922614 32.3050288,47.8864795 C33.0932406,48.2664417 33.9747757,48.4437847 34.8870208,48.3406561 C36.6244504,48.1443157 37.8219743,47.2043274 39.0948115,45.9278391 C39.2525834,45.7666792 39.4104563,45.6004672 39.5690946,45.4315797 C39.6692778,45.278484 39.8083069,45.1800892 39.962667,45.1284632 C40.1340565,45.0711416 40.327938,45.0743848 40.5055187,45.1363808 C40.6767961,45.1961763 40.8299095,45.309486 40.9325762,45.4602937 C41.0301525,45.6036243 41.0854754,45.7806897 41.0675245,45.9843589 C40.9510195,47.3072301 40.2596776,48.4878363 39.2776553,49.4148615 C38.1869942,50.4444414 36.7412431,51.1567117 35.3801317,51.4065272 C33.8805866,51.6817086 32.3525901,51.4845569 30.968993,50.9198978 L30.968993,50.9198978 Z M36.0875289,30.5120405 C37.6828906,31.482148 40.1137318,33.7442494 38.3974899,36.149264 C36.3773089,38.2698449 33.4687045,35.8384541 32.0353946,34.7388307 C30.7063626,33.8866164 29.2131206,36.0784478 30.4461973,37.0735516 C40.8033244,44.7445605 45.006466,30.7657101 36.8944406,29.3714319 C36.0012775,29.2177885 35.6695544,30.2119271 36.0875289,30.5120405 Z M17.5274577,21.5886716 C17.7037243,19.3998697 21.0359789,18.9028321 21.3674577,21.0687499 C21.6642887,23.0089456 21.3148521,24.7912626 20.4412606,26.5380728 C19.6065423,28.2068947 17.5085456,27.4283107 17.3498837,25.9087021 C17.1372039,23.8717299 17.4178099,22.9502317 17.5274577,21.5886716 Z M42.8930282,20.6196517 C43.3576056,20.0109628 44.0283803,19.5954481 44.8320423,19.8302583 C47.3429577,20.5642779 46.6028873,24.1303914 45.7210563,25.8662114 C45.2419014,26.8088337 43.6930986,27.0478708 42.993169,26.2178982 C41.8523239,24.864411 41.3059859,22.1614521 42.756338,20.8282544 C42.7956338,20.7593542 42.8393662,20.68982 42.8930282,20.6196517 Z M20.4058944,12.0111429 L20.802522,11.9416942 C22.0295218,11.7294045 23.5551549,11.5254176 24.4231479,12.5122544 C24.8835,13.0355577 25.0419507,14.0081918 24.4231479,14.509092 C23.3346972,15.3904227 22.1313169,15.0488806 20.8269507,15.1234873 C19.7520211,15.1852016 18.7189225,15.3631585 17.6835,15.6592603 C15.4119507,16.3087397 13.5610352,17.4944149 11.6209648,18.7963327 C11.3663873,18.9671037 11.1065282,18.6414129 11.228007,18.4032211 C12.3479366,16.208771 14.5182887,14.4061644 16.6922324,13.3073542 C17.8525141,12.7208571 19.1222324,12.2343288 20.4058944,12.0111429 Z M40.6041287,11.0281289 L40.9077055,11.0902829 C44.2113469,11.7811043 48.5035506,13.1610768 50.0679842,16.4073021 C50.1275964,16.8663298 50.0646105,16.9647086 50.0133917,17.0289838 L49.9963385,17.0503723 C49.9541341,17.1052595 49.9204583,17.1809212 49.7215736,17.2433957 C49.6663832,17.2302408 49.6106433,17.216308 49.5543131,17.2015401 C48.8372041,17.0135386 48.2698321,16.7545401 47.720556,16.4857982 L47.1250012,16.192275 C46.4340388,15.8533498 45.7369757,15.5267598 44.9982488,15.2856588 C43.4217423,14.7712438 41.8001698,14.4088706 40.1534741,14.2153715 C39.7965654,14.1734678 39.4528848,14.0529641 39.1817455,13.8464404 C38.92438,13.6504079 38.7277692,13.3789964 38.6381257,13.0182314 C38.5219478,12.5513438 38.5553348,12.1978716 38.8057421,11.7766707 C38.9940329,11.4603578 39.263447,11.2411116 39.5728025,11.115213 C39.888177,10.9868648 40.2472278,10.9566068 40.6041287,11.0281289 Z" id="ðŸ–-Ink"></path>
                </g>
                <g id="facial-hair/Full" transform="translate(104.577451, 109.479380)" fill="#000000" fill-rule="evenodd">
                    <path d="M24.8714257,20.1190753 C26.5818995,16.1103389 30.3151083,13.1641387 34.613341,12.0870037 C37.7697106,11.2980357 41.0822108,11.3232133 44.2997667,11.6363462 C45.9855551,11.79926 47.793716,11.9327646 49.3824502,12.5590305 C50.7390983,13.094107 51.8446716,14.1054418 52.6759615,15.2925964 C53.6654918,16.6993673 54.3385412,18.3094631 54.8111527,19.9597583 C54.8782466,20.1943964 54.9413318,20.4307272 55.0001973,20.6683274 C54.7946957,21.913454 54.358374,22.9732397 53.2055395,23.7560721 C52.0805554,24.5204973 50.7382544,24.8332071 49.4001731,24.9442846 C49.268939,24.8812349 49.1421356,24.8164925 49.0258817,24.7500576 C46.9406944,23.5559209 45.473067,20.733916 42.8412117,21.1158113 C40.4925014,21.4568723 38.9463867,24.4132281 37.5496509,26.1468844 C33.0661714,26.6694779 28.5860676,25.3217368 24.9380977,22.7570087 C24.7528508,21.8791786 24.7420905,20.9939433 24.8714257,20.1190753 M58.0474865,17.0780889 C57.6888081,16.0711973 57.2370843,15.0960421 56.7015987,14.1773777 C54.9314154,11.1393534 52.2138994,8.71870887 48.987904,7.33499979 C41.3564943,4.06614578 31.4822899,6.37042339 25.3193517,11.7315555 C23.2141207,13.5642296 21.0854701,16.2573844 20.4417479,19.1542873 C20.2495385,19.192371 20.0680894,19.2924466 19.9187104,19.4333564 C15.466035,16.6289124 10.8806486,13.9306797 7.29259907,10.0431766 C4.68690625,7.21863282 2.87452557,3.87593867 1.76473252,0.202762327 C1.67400799,-0.0995802223 1.18662739,-0.0553607732 1.2013965,0.279141375 C1.20561624,0.357424611 1.20983599,0.43549627 1.21405573,0.513779505 C1.16763853,0.369907613 0.94821177,0.443959322 0.931332788,0.583599688 C0.334238806,5.0457441 -0.412656141,9.77659043 0.275162369,14.2620082 C0.686587551,16.9384486 1.90187424,18.8978568 3.52647625,21.0136199 C5.26712125,23.2815064 7.23774238,25.3909222 9.25267083,27.4138033 C10.5312537,28.69786 11.8668031,30.1788941 13.4323287,31.1204087 C15.2531489,32.2142583 17.3187143,33.0459647 19.2619071,33.8899427 C21.2388578,34.7510582 23.2453468,35.5465852 25.2898135,36.2363239 C29.3766369,37.620033 33.6006021,38.576358 37.8984129,38.9952791 C41.3396153,39.3295696 45.2724181,39.6936925 48.5701492,38.3986339 C51.0977767,37.406341 53.1380236,35.6123854 54.756296,33.4540955 C56.5180397,31.1034826 57.9107667,28.4259844 58.6806593,25.6024985 C59.480723,22.6696277 58.2160653,17.550962 58.0474865,17.0780889" id="ðŸ–-Ink"></path>
                </g>
                <g id="accessories/*-None" transform="translate(88.521127, 88.978474)"></g>
            </g>
        </g>
    </g>
</svg>