<?xml version="1.0" encoding="UTF-8"?>
<svg width="54px" height="75px" viewBox="0 0 54 75" version="1.1" xmlns="http://www.w3.org/2000/svg" xmlns:xlink="http://www.w3.org/1999/xlink">
    <!-- Generator: Sketch 63.1 (92452) - https://sketch.com -->
    <title>css3-test</title>
    <desc>Created with Sketch.</desc>
    <g id="Page-1" stroke="none" stroke-width="1" fill="none" fill-rule="evenodd">
        <g id="Desktop-HD-Copy-4" transform="translate(-389.000000, -1301.000000)" fill="#F7F1E3">
            <g id="showcase" transform="translate(30.000000, 1030.000000)">
                <g id="technologies" transform="translate(220.000000, 200.000000)">
                    <g id="frontend">
                        <g id="css3-test" transform="translate(139.000000, 71.000000)">
                            <g id="css3">
                                <g>
                                    <polygon id="path2999" fill-rule="nonzero" points="12.6757317 0 20.7245122 0 20.7245122 3.36585366 16.0412195 3.36585366 16.0412195 6.73170732 20.7245122 6.73170732 20.7245122 10.097561 12.6757317 10.097561"></polygon>
                                    <polygon id="path3001" fill-rule="nonzero" points="22.3342683 0 30.3830488 0 30.3830488 2.92682927 25.700122 2.92682927 25.700122 3.51219512 30.3830488 3.51219512 30.3830488 10.2439024 22.3342683 10.2439024 22.3342683 7.17073171 27.0171951 7.17073171 27.0171951 6.58536585 22.3342683 6.58536585"></polygon>
                                    <polygon id="path3003" fill-rule="nonzero" points="31.992622 0 40.0414024 0 40.0414024 2.92682927 35.3584756 2.92682927 35.3584756 3.51219512 40.0414024 3.51219512 40.0414024 10.2439024 31.992622 10.2439024 31.992622 7.17073171 36.6759146 7.17073171 36.6759146 6.58536585 31.992622 6.58536585 31.992622 0"></polygon>
                                    <g id="Group" transform="translate(0.067134, 14.634146)" fill-rule="nonzero">
                                        <path d="M0.115792683,0.0907317073 L4.94670732,54.2745732 L26.6248171,60.2926829 L48.3629268,54.2663415 L53.1987805,0.0907317073 L0.115792683,0.0907317073 Z M42.0815854,24.6170122 L41.9191463,26.4016463 L40.3578659,43.8969512 L40.257622,45.0197561 L26.6571951,48.7889634 L26.6571951,48.790061 L26.6266463,48.7986585 L13.0137805,45.0197561 L12.0828659,34.5852439 L15.1575,34.5852439 L18.7536585,34.5852439 L19.2268902,39.8855488 L26.6279268,41.8840244 L26.6341463,41.882378 L26.6341463,41.8818293 L34.0457927,39.8811585 L34.817378,31.262561 L26.657378,31.262561 L26.6343293,31.262561 L11.7861585,31.262561 L11.1905488,24.6171951 L26.6343293,24.6171951 L26.657378,24.6171951 L35.3935976,24.6171951 L35.9985366,17.8123171 L26.657561,17.8123171 L26.6345122,17.8123171 L10.5980488,17.8123171 L9.99384146,11.1667683 L26.6345122,11.1667683 L26.657561,11.1667683 L43.2814024,11.1667683 L42.0815854,24.6170122 Z" id="Shape"></path>
                                    </g>
                                </g>
                            </g>
                        </g>
                    </g>
                </g>
            </g>
        </g>
    </g>
</svg>