<?xml version="1.0" encoding="UTF-8"?>
<svg width="75px" height="75px" viewBox="0 0 75 75" version="1.1" xmlns="http://www.w3.org/2000/svg" xmlns:xlink="http://www.w3.org/1999/xlink">
    <!-- Generator: Sketch 63.1 (92452) - https://sketch.com -->
    <title>git</title>
    <desc>Created with Sketch.</desc>
    <g id="Page-1" stroke="none" stroke-width="1" fill="none" fill-rule="evenodd">
        <g id="Desktop-HD-Copy-4" transform="translate(-683.000000, -1363.000000)" fill="#F7F1E3">
            <g id="showcase" transform="translate(30.000000, 1030.000000)">
                <g id="technologies" transform="translate(220.000000, 200.000000)">
                    <g id="git" transform="translate(433.000000, 133.000000)">
                        <g id="Path">
                            <path d="M73.5855469,34.1583984 L40.8392578,1.41474609 C38.9548828,-0.471386719 35.8959961,-0.471386719 34.0092773,1.41474609 L27.2094727,8.21425781 L35.8350586,16.8401367 C37.8395508,16.162793 40.1381836,16.6171875 41.7363281,18.2150391 C43.3415039,19.8231445 43.7929688,22.1411133 43.0986328,24.1523437 L51.4119141,32.465332 C53.4228516,31.7724609 55.74375,32.2209961 57.3500977,33.8296875 C59.5948242,36.0738281 59.5948242,39.7110352 57.3500977,41.9566406 C55.1044922,44.2025391 51.4672852,44.2025391 49.2208008,41.9566406 C47.5318359,40.2662109 47.1149414,37.7865234 47.9698242,35.7058594 L40.2169922,27.9533203 L40.2161133,48.3550781 C40.7633789,48.6263672 41.2801758,48.9878906 41.7360352,49.4419922 C43.9807617,51.6858398 43.9807617,55.3233398 41.7360352,57.5707031 C39.4901367,59.8157227 35.8511719,59.8157227 33.6087891,57.5707031 C31.3637695,55.3233398 31.3637695,51.6858398 33.6087891,49.4419922 C34.1633789,48.8882813 34.8052734,48.4693359 35.4899414,48.1880859 L35.4899414,27.5961914 C34.8052734,27.3164062 34.1642578,26.9000977 33.6087891,26.3422852 C31.9078125,24.6436523 31.4988281,22.1478516 32.3701172,20.0592773 L23.868457,11.5552734 L1.41533203,34.0066406 C-0.471386719,35.8942383 -0.471386719,38.953125 1.41533203,40.8392578 L34.1613281,73.5837891 C36.046875,75.4699219 39.1045898,75.4699219 40.9924805,73.5837891 L73.5852539,40.9916016 C75.4716797,39.1048828 75.4716797,36.0442383 73.5855469,34.1583984" fill-rule="nonzero"></path>
                        </g>
                    </g>
                </g>
            </g>
        </g>
    </g>
</svg>