<?xml version="1.0" encoding="UTF-8"?>
<svg width="26px" height="25px" viewBox="0 0 26 25" version="1.1" xmlns="http://www.w3.org/2000/svg" xmlns:xlink="http://www.w3.org/1999/xlink">
    <!-- Generator: Sketch 63.1 (92452) - https://sketch.com -->
    <title>github - mobile</title>
    <desc>Created with Sketch.</desc>
    <g id="github---mobile" stroke="none" stroke-width="1" fill="none" fill-rule="evenodd">
        <g id="github" fill="#071E3D">
            <g id="Path">
                <path d="M13,0 C5.8175,0 0,5.73523743 0,12.816173 C0,18.4873296 3.72125,23.2773743 8.88875,24.9755172 C9.53875,25.0876587 9.7825,24.7031735 9.7825,24.366749 C9.7825,24.0623649 9.76625,23.0530913 9.76625,21.9797368 C6.5,22.5724848 5.655,21.1947462 5.395,20.4738364 C5.24875,20.1053715 4.615,18.9679361 4.0625,18.663552 C3.6075,18.4232487 2.9575,17.8305007 4.04625,17.8144805 C5.07,17.7984603 5.80125,18.7436531 6.045,19.1281383 C7.215,21.0665844 9.08375,20.5218971 9.83125,20.1854725 C9.945,19.3524213 10.28625,18.7917137 10.66,18.4713094 C7.7675,18.1509051 4.745,17.0455101 4.745,12.143324 C4.745,10.7495651 5.24875,9.59610956 6.0775,8.69897745 C5.9475,8.37857312 5.4925,7.06491539 6.2075,5.30269159 C6.2075,5.30269159 7.29625,4.96626705 9.7825,6.61634933 C10.8225,6.32798544 11.9275,6.18380349 13.0325,6.18380349 C14.1375,6.18380349 15.2425,6.32798544 16.2825,6.61634933 C18.76875,4.95024684 19.8575,5.30269159 19.8575,5.30269159 C20.5725,7.06491539 20.1175,8.37857312 19.9875,8.69897745 C20.81625,9.59610956 21.32,10.7335449 21.32,12.143324 C21.32,17.0615304 18.28125,18.1509051 15.38875,18.4713094 C15.86,18.8718148 16.26625,19.6407852 16.26625,20.8423014 C16.26625,22.5564645 16.25,23.9342031 16.25,24.366749 C16.25,24.7031735 16.49375,25.1036789 17.14375,24.9755172 C22.27875,23.2773743 26,18.4713094 26,12.816173 C26,5.73523743 20.1825,0 13,0 Z"></path>
            </g>
        </g>
    </g>
</svg>