<?xml version="1.0" encoding="UTF-8"?>
<svg width="61px" height="75px" viewBox="0 0 61 75" version="1.1" xmlns="http://www.w3.org/2000/svg" xmlns:xlink="http://www.w3.org/1999/xlink">
    <!-- Generator: Sketch 63.1 (92452) - https://sketch.com -->
    <title>Heroku-01</title>
    <desc>Created with Sketch.</desc>
    <g id="Page-1" stroke="none" stroke-width="1" fill="none" fill-rule="evenodd">
        <g id="Desktop-HD-Copy-4" transform="translate(-1129.000000, -1426.000000)" fill="#F7F1E3">
            <g id="showcase" transform="translate(30.000000, 1030.000000)">
                <g id="technologies" transform="translate(220.000000, 200.000000)">
                    <g id="backend" transform="translate(739.000000, 0.000000)">
                        <g id="Heroku-01" transform="translate(140.000000, 196.000000)">
                            <g id="Combined-Shape">
                                <path d="M53.1443299,0.128865979 C57.0876289,0.128865979 60.2835052,3.32474227 60.2835052,7.24226804 L60.2835052,67.7061856 C60.2835052,71.6494845 57.0876289,74.8453608 53.1443299,74.8453608 L7.13917526,74.8453608 C3.19587629,74.8453608 0.0257731959,71.6494845 0.0257731959,67.7319588 L0.0257731959,7.24226804 C0.0257731959,3.29896907 3.22164948,0.128865979 7.13917526,0.128865979 L53.1443299,0.128865979 Z M22.371134,10.3092784 L13.9690722,10.3608247 C13.9690722,10.3608247 13.9690722,37.9381443 14.0206186,37.8092784 C39.7164948,27.7835052 37.7835052,34.8969072 37.7835052,34.8969072 L37.7835052,34.8969072 L37.7835052,64.5618557 L45.8762887,64.5618557 L45.8762887,35 C45.8762887,18.7113402 22.371134,27.9639175 22.371134,27.9639175 L22.371134,27.9639175 L22.371134,10.3092784 Z M14.0979381,47.6030928 L14.0979381,64.5103093 L22.5515464,56.056701 L14.0979381,47.6030928 Z M48.9690722,10.3608247 L39.742268,10.3608247 C39.742268,10.3608247 36.8298969,17.0876289 33.6340206,21.0051546 L33.6340206,21.0051546 L42.5515464,21.0051546 C47.3969072,14.742268 48.9690722,10.3608247 48.9690722,10.3608247 L48.9690722,10.3608247 Z" fill-rule="nonzero"></path>
                            </g>
                        </g>
                    </g>
                </g>
            </g>
        </g>
    </g>
</svg>