<?xml version="1.0" encoding="UTF-8"?>
<svg width="53px" height="75px" viewBox="0 0 53 75" version="1.1" xmlns="http://www.w3.org/2000/svg" xmlns:xlink="http://www.w3.org/1999/xlink" style="background: #071E3D;">
    <!-- Generator: Sketch 63.1 (92452) - https://sketch.com -->
    <title>html5</title>
    <desc>Created with Sketch.</desc>
    <g id="html5" stroke="none" stroke-width="1" fill="none" fill-rule="evenodd">
        <rect fill="#071E3D" x="0" y="0" width="53" height="75"></rect>
        <g fill="#F7F1E3" fill-rule="nonzero" id="g10">
            <g transform="translate(26.500000, 37.500000) scale(-1, 1) rotate(-180.000000) translate(-26.500000, -37.500000) ">
                <g id="g12">
                    <polyline id="path22" points="4.92631336 75 8.29492742 75 8.29492742 71.6601716 11.3763401 71.6601716 11.3763401 75 14.7451251 75 14.7451251 64.886152 11.3764622 64.886152 11.3764622 68.2727941 8.29509839 68.2727941 8.29509839 64.886152 4.92653318 64.886152 4.92653318 75 4.92631336 75"></polyline>
                    <polyline id="path24" points="19.1748871 71.6460784 16.2093539 71.6460784 16.2093539 75 25.5105975 75 25.5105975 71.6460784 22.5436721 71.6460784 22.5436721 64.8861642 19.1751435 64.8861642 19.1751435 71.6460784 19.1748871 71.6460784"></polyline>
                    <polyline id="path26" points="26.9867696 75 30.4993018 75 32.65998 71.4463235 34.8185088 75 38.3323721 75 38.3323721 64.886152 34.9775332 64.886152 34.9775332 69.8991176 32.6599677 66.3030637 32.6020952 66.3030637 30.2828323 69.8991176 30.2828323 64.886152 26.9867696 64.886152 26.9867696 75"></polyline>
                    <polyline id="path28" points="40.008723 75 43.3784118 75 43.3784118 68.2291789 48.1155005 68.2291789 48.1155005 64.886152 40.008723 64.886152 40.008723 75"></polyline>
                    <g id="Group">
                        <path d="M0,60.2607721 L4.81857926,6.02389706 L26.4418832,0 L48.124806,6.03251225 L52.9486608,60.2607721 L0,60.2607721 L0,60.2607721 Z M42.8975528,47.3894975 L42.5955871,44.0173039 L42.4626719,42.5220343 L42.4413864,42.5220343 L26.4743426,42.5220343 L26.4513963,42.5220343 L17.0971528,42.5220343 L17.7029525,35.7103309 L26.4513963,35.7103309 L26.4743426,35.7103309 L40.0732878,35.7103309 L41.8594733,35.7103309 L41.6977622,33.9241544 L40.1400141,16.4117279 L40.0403765,15.2879657 L26.4743426,11.515 L26.4743426,11.5138358 L26.4438005,11.5054044 L12.8655668,15.2879534 L11.9368334,25.7325123 L15.0037505,25.7325123 L18.5909101,25.7325123 L19.0630376,20.4273039 L26.4452781,18.426875 L26.4514085,18.4284926 L26.4514085,18.4290319 L33.8444811,20.4315196 L34.6137871,29.0585662 L26.4743671,29.0585662 L26.4514207,29.0585662 L11.6407295,29.0585662 L10.0115657,47.3894975 L9.85284654,49.1740074 L26.4514085,49.1740074 L26.4743548,49.1740074 L43.0562353,49.1740074 L42.8975528,47.3894975 Z" id="Shape"></path>
                    </g>
                </g>
            </g>
        </g>
    </g>
</svg>