<?xml version="1.0" encoding="UTF-8"?>
<svg width="75px" height="75px" viewBox="0 0 75 75" version="1.1" xmlns="http://www.w3.org/2000/svg" xmlns:xlink="http://www.w3.org/1999/xlink">
    <!-- Generator: Sketch 63.1 (92452) - https://sketch.com -->
    <title>js</title>
    <desc>Created with Sketch.</desc>
    <g id="Page-1" stroke="none" stroke-width="1" fill="none" fill-rule="evenodd">
        <g id="Desktop-HD-Copy-4" transform="translate(-250.000000, -1426.000000)" fill="#F7F1E3">
            <g id="showcase" transform="translate(30.000000, 1030.000000)">
                <g id="technologies" transform="translate(220.000000, 200.000000)">
                    <g id="frontend">
                        <g id="js" transform="translate(0.000000, 196.000000)">
                            <g id="Shape">
                                <path d="M0,0 L0,75 L75,75 L75,0 L0,0 Z M40.8146484,58.4964844 C40.8146484,65.7963867 36.5358398,69.1192383 30.2923828,69.1192383 C24.6541992,69.1192383 21.3811523,66.1992188 19.7200195,62.6753906 L25.4595703,59.2025391 C26.5666992,61.1654297 27.5739258,62.8268555 29.9900391,62.8268555 C32.305957,62.8268555 33.7661133,61.9207031 33.7661133,58.396875 L33.7661133,34.4326172 L40.8146484,34.4326172 L40.8146484,58.4964844 Z M57.4807617,69.1192383 C50.9358398,69.1192383 46.7068359,65.9982422 44.6428711,61.9201172 L50.381543,58.5972656 C51.8923828,61.0646484 53.8558594,62.8763672 57.3298828,62.8763672 C60.2499023,62.8763672 62.1120117,61.4165039 62.1120117,59.4026367 C62.1120117,56.9865234 60.1995117,56.1301758 56.9768555,54.7212891 L55.2155273,53.9657227 C50.1304688,51.8009766 46.7572266,49.0825195 46.7572266,43.3432617 C46.7572266,38.0566406 50.7849609,34.0291992 57.0782227,34.0291992 C61.5588867,34.0291992 64.7806641,35.5901367 67.0959961,39.6682617 L61.6089844,43.1917969 C60.4004883,41.0270508 59.0917969,40.1712891 57.0782227,40.1712891 C55.0139648,40.1712891 53.7046875,41.4802734 53.7046875,43.1917969 C53.7046875,45.3067383 55.0139648,46.162793 58.0338867,47.4714844 L59.7958008,48.2264648 C65.7873047,50.7943359 69.1605469,53.4117187 69.1605469,59.3018555 C69.1605469,65.6458008 64.1762695,69.1192383 57.4807617,69.1192383 Z" fill-rule="nonzero"></path>
                            </g>
                        </g>
                    </g>
                </g>
            </g>
        </g>
    </g>
</svg>