<?xml version="1.0" encoding="UTF-8"?>
<svg width="25px" height="25px" viewBox="0 0 25 25" version="1.1" xmlns="http://www.w3.org/2000/svg" xmlns:xlink="http://www.w3.org/1999/xlink">
    <!-- Generator: Sketch 63.1 (92452) - https://sketch.com -->
    <title>linkedin - mobile</title>
    <desc>Created with Sketch.</desc>
    <g id="linkedin---mobile" stroke="none" stroke-width="1" fill="none" fill-rule="evenodd">
        <g id="linkedin" fill="#071E3D" fill-rule="nonzero">
            <g id="Shape">
                <path d="M12.4996758,0 C5.59657298,0 0,5.59662136 0,12.4997839 C0,19.4031625 5.59635685,25 12.4996758,25 C19.4032109,25 25,19.4031625 25,12.4997839 C25,5.59662136 19.4032109,0 12.4996758,0 Z M7.31289282,5.63768717 C8.16316386,5.63768717 8.85284735,6.26664246 8.85284735,7.04257011 C8.85284735,7.81849777 8.16316386,8.44745306 7.31289282,8.44745306 C6.46218952,8.44745306 5.7729383,7.81849777 5.7729383,7.04257011 C5.7729383,6.26664246 6.46218952,5.63768717 7.31289282,5.63768717 Z M8.86451858,17.653759 L5.82178457,17.653759 L5.82178457,9.71400906 L8.86451858,9.71400906 L8.86451858,17.653759 L8.86451858,17.653759 Z M19.2039354,17.653759 L16.1465042,17.653759 L16.1465042,13.2878151 C16.1465042,12.7894059 16.0539989,12.4366722 15.8696366,12.2296141 C15.6850582,12.0229882 15.4259136,11.919243 15.0924189,11.919243 C14.7234782,11.919243 14.4241327,12.0588668 14.1950306,12.3381143 C13.9657125,12.6173618 13.8513776,13.1181485 13.8513776,13.8409067 L13.8513776,17.653759 L10.8084275,17.653759 L10.8084275,9.71400906 L13.6417277,9.71400906 L13.6417277,11.0071498 C14.0651341,10.4791299 14.4939439,10.1015406 14.9275087,9.87459799 C15.3610734,9.64787149 15.8890887,9.53461632 16.5122029,9.53461632 C17.3546931,9.53461632 18.0136856,9.78490161 18.4898287,10.2859045 C18.9655396,10.7866912 19.2037192,11.5604575 19.2037192,12.6072034 L19.2037192,17.653759 L19.2039354,17.653759 Z"></path>
            </g>
        </g>
    </g>
</svg>