<?xml version="1.0" encoding="UTF-8"?>
<svg width="25px" height="25px" viewBox="0 0 25 25" version="1.1" xmlns="http://www.w3.org/2000/svg" xmlns:xlink="http://www.w3.org/1999/xlink">
    <!-- Generator: Sketch 63.1 (92452) - https://sketch.com -->
    <title>mail - mobile@3x</title>
    <desc>Created with Sketch.</desc>
    <g id="mail---mobile" stroke="none" stroke-width="1" fill="none" fill-rule="evenodd">
        <g id="mail" fill="#071E3D" fill-rule="nonzero">
            <g>
                <polygon id="Path" points="17.5432478 8.03571429 7.45675223 8.03571429 12.5 12.3585292"></polygon>
                <path d="M12.5,13.3928571 C12.3934065,13.3928571 12.2903007,13.3547102 12.2094291,13.2851737 L6.69642857,8.5597447 L6.69642857,16.9642857 L18.3035714,16.9642857 L18.3035714,8.5597447 L12.7905709,13.2851737 C12.7096993,13.3547102 12.6065935,13.3928571 12.5,13.3928571 Z" id="Path"></path>
                <path d="M12.5,0 C5.59648783,0 0,5.59648783 0,12.5 C0,19.4035122 5.59648783,25 12.5,25 C19.4035122,25 25,19.4035122 25,12.5 C24.9921526,5.59975759 19.4002424,0.00784737723 12.5,0 Z M19.1964286,17.4107143 C19.1964286,17.6572527 18.9965384,17.8571429 18.75,17.8571429 L6.25,17.8571429 C6.00346155,17.8571429 5.80357143,17.6572527 5.80357143,17.4107143 L5.80357143,7.58928571 C5.80357143,7.34274727 6.00346155,7.14285714 6.25,7.14285714 L18.75,7.14285714 C18.9965384,7.14285714 19.1964286,7.34274727 19.1964286,7.58928571 L19.1964286,17.4107143 Z" id="Shape"></path>
            </g>
        </g>
    </g>
</svg>