<?xml version="1.0" encoding="UTF-8"?>
<svg width="68px" height="75px" viewBox="0 0 68 75" version="1.1" xmlns="http://www.w3.org/2000/svg" xmlns:xlink="http://www.w3.org/1999/xlink">
    <!-- Generator: Sketch 63.1 (92452) - https://sketch.com -->
    <title>mongodb</title>
    <desc>Created with Sketch.</desc>
    <g id="Page-1" stroke="none" stroke-width="1" fill="none" fill-rule="evenodd">
        <g id="Desktop-HD-Copy-4" transform="translate(-1121.000000, -1301.000000)">
            <g id="showcase" transform="translate(30.000000, 1030.000000)">
                <g id="technologies" transform="translate(220.000000, 200.000000)">
                    <g id="backend" transform="translate(739.000000, 0.000000)">
                        <g id="mongodb" transform="translate(132.000000, 71.000000)">
                            <g>
                                <path d="M67.6691729,24.9375 C67.6691729,63.375 33.8345865,75 33.8345865,75 C33.8345865,75 0,63.375 0,24.9375 C0,20.25 0.37593985,16.3125 0.751879699,13.125 C1.31578947,8.4375 4.5112782,4.6875 9.02255639,3.5625 C14.8496241,1.875 24.0601504,0 33.8345865,0 C43.6090226,0 52.8195489,1.875 58.8345865,3.5625 C63.3458647,4.6875 66.5413534,8.625 67.1052632,13.125 C67.2932331,16.3125 67.6691729,20.4375 67.6691729,24.9375 Z" id="Path" fill-rule="nonzero"></path>
                                <path d="M33.8345865,5.625 C43.0451128,5.625 51.6917293,7.5 57.3308271,9 C59.5864662,9.5625 61.0902256,11.4375 61.4661654,13.875 C61.8421053,17.4375 62.0300752,21.1875 62.0300752,24.9375 C62.0300752,54.1875 40.4135338,66 33.8345865,68.8125 C27.2556391,65.8125 5.63909774,54 5.63909774,24.9375 C5.63909774,21.1875 5.82706767,17.4375 6.20300752,13.875 C6.39097744,11.4375 8.08270677,9.5625 10.3383459,9 C15.9774436,7.5 24.6240602,5.625 33.8345865,5.625 M33.8345865,0 C24.0601504,0 14.8496241,1.875 8.83458647,3.5625 C4.5112782,4.6875 1.12781955,8.625 0.751879699,13.125 C0.37593985,16.3125 0,20.4375 0,24.9375 C0,63.375 33.8345865,75 33.8345865,75 C33.8345865,75 67.6691729,63.375 67.6691729,24.9375 C67.6691729,20.25 67.2932331,16.3125 66.9172932,13.125 C66.3533835,8.4375 63.1578947,4.6875 58.6466165,3.5625 C52.8195489,1.875 43.6090226,0 33.8345865,0 L33.8345865,0 Z" id="Shape" fill="#F7F1E3" fill-rule="nonzero"></path>
                                <polygon id="Path" fill="#F7F1E3" fill-rule="nonzero" points="32.1428571 45.112782 36.0902256 45.112782 36.0902256 60.3383459 32.1428571 60.3383459"></polygon>
                                <path d="M33.8345865,11.2781955 C33.8345865,11.2781955 22.556391,20.5949657 22.556391,35.501798 C22.556391,45.191239 28.7593985,51.3403073 31.9548872,54.1353383 L33.8345865,48.5452762 L35.7142857,54.1353383 C38.9097744,51.3403073 45.112782,45.191239 45.112782,35.501798 C45.112782,20.5949657 33.8345865,11.2781955 33.8345865,11.2781955 Z" id="Path" fill="#F7F1E3" fill-rule="nonzero"></path>
                                <path d="M33.8345865,11.2781955 C33.8345865,11.2781955 22.556391,20.5949657 22.556391,35.501798 C22.556391,45.191239 28.7593985,51.3403073 31.9548872,54.1353383 L33.8345865,48.5452762 L33.8345865,11.2781955 Z" id="Path" fill="#F7F1E3" fill-rule="nonzero"></path>
                            </g>
                        </g>
                    </g>
                </g>
            </g>
        </g>
    </g>
</svg>