<?xml version="1.0" encoding="UTF-8"?>
<svg width="75px" height="75px" viewBox="0 0 75 75" version="1.1" xmlns="http://www.w3.org/2000/svg" xmlns:xlink="http://www.w3.org/1999/xlink" style="background: #071E3D;">
    <!-- Generator: Sketch 63.1 (92452) - https://sketch.com -->
    <title>nodejs</title>
    <desc>Created with Sketch.</desc>
    <g id="nodejs" stroke="none" stroke-width="1" fill="none" fill-rule="evenodd">
        <rect fill="#071E3D" x="0" y="0" width="75" height="75"></rect>
        <g fill-rule="nonzero">
            <path d="M75,37.5 C75,58.2106934 58.2106934,75 37.5,75 C18.3918457,75 2.62192383,60.7086914 0.296923828,42.2311523 C0.101074219,40.6820801 0,39.1025391 0,37.5 C0,34.5643066 0.336767578,31.7066895 0.975,28.9652344 C4.83823242,12.3673828 19.725,0 37.5,0 C55.2306152,0 70.0882324,12.3061523 73.9943848,28.8429199 C74.5070801,31.0056152 74.8300781,33.2403809 74.947998,35.5286133 C74.9831543,36.1820801 75,36.8387695 75,37.5 Z" id="Path" fill="#F7F1E3"></path>
            <polygon id="Path" fill="#071E3D" points="36 40.2500357 36 30.7499643 27.4999263 26 19 30.7499643 19 40.2500357 27.4999263 45"></polygon>
            <path d="M68.7260038,39.4819712 L74.4130382,42.7409856 L68.7260038,46 L60,41 L60,31 L68.7260038,26 L74.0144129,29.0314002 C74.5442984,31.2495493 74.8781263,33.5416166 75,35.8885216 L71.766487,37.7409856 L71.766487,34.257512 L68.7260038,32.5165264 L65.6855205,34.257512 L65.6855205,37.7409856 L68.7260038,39.4819712 Z" id="Path" fill="#071E3D"></path>
            <polygon id="Path" fill="#071E3D" points="70 36.9998839 70 34.9999613 68.500067 34 67 34.9999613 67 36.9998839 68.500067 38"></polygon>
            <path d="M15,30.9487658 L15,44 L9.27298731,40.7387899 L9.27298731,34.0484916 L6.41350337,32.3998943 L3.55387045,34.0483429 L3.55387045,40.7386412 L0.301978428,42.590804 C0.102794827,41.0183392 0,39.4149456 0,37.7882067 C0,34.8081816 0.342500447,31.9074117 0.99159764,29.124558 L6.41350337,26 L15,30.9487658 Z" id="Path" fill="#071E3D"></path>
            <polygon id="Rectangle" fill="#071E3D" transform="translate(27.180118, 35.635769) rotate(59.999272) translate(-27.180118, -35.635769) " points="18.7368708 30.7610964 35.6233645 30.7610964 35.6233645 40.5104424 18.7368708 40.5104424"></polygon>
            <polygon id="Path" fill="#071E3D" points="19 41 22 36.1507685 19 31"></polygon>
            <polygon id="Path" fill="#071E3D" points="32.3330558 36 35 31.0001502 27 26"></polygon>
            <path d="M50.3497016,14 L50.3497016,27.0189857 L47.5007373,25.3736255 L39,30.2802192 L39,40.0934064 L47.5007373,45 L56,40.0934064 L56,17.0240127 L50.3497016,14 Z M50.3342181,36.8214102 L47.5005898,38.457482 L44.6669616,36.8214102 L44.6669616,33.5508884 L47.5005898,31.9148166 L50.3342181,33.5508884 L50.3342181,36.8214102 Z" id="Shape" fill="#071E3D"></path>
            <g id="Group" transform="translate(28.000000, 44.000000)" fill="#071E3D">
                <path d="M13.22235,8.79956522 C13.22235,8.79956522 13.05255,7.38956522 11.4915,7.38956522 C9.9303,7.38956522 8.8614,7.58623188 8.8614,8.42246377 C8.8614,9.25869565 11.8989,9.25869565 13.05285,9.58652174 C14.2068,9.91434783 15.22485,10.7669565 14.71575,12.2753623 C14.20665,13.7837681 12.64545,13.9476812 10.23585,13.9476812 C7.82625,13.9476812 7.2831,12.0128986 7.2831,11.2588406 L8.6406,11.2588406 C8.6406,11.2588406 8.4708,12.4392754 10.0659,12.635942 C11.661,12.8326087 13.1862,12.9433333 13.39185,11.7507246 C13.66335,10.1766667 8.2332,10.9637681 7.758,9.4226087 C7.3566,8.12043478 7.5882,6.40594203 10.30335,6.14347826 C13.0185,5.88101449 14.51175,7.03927536 14.51175,8.76681159 L13.22235,8.79956522 Z" id="Path"></path>
                <path d="M0.1083,14.9465217 L3.10965,16.6205797 C4.6176,17.4617391 6.5025,16.4102899 6.5025,14.727971 L6.5025,11.7943478 L6.5025,6.39536232 L5.27925,6.39536232 L5.27925,14.3992754 C5.27925,15.317971 4.24995,15.8923188 3.4263,15.4327536 L1.33155,14.2643478 L1.33155,5.72231884 L8.988,1.45173913 L16.64445,5.72231884 L16.64445,14.2643478 L8.988,18.5349275 L6.7824,17.3046377 L5.3421,17.8657971 L8.98785,19.8995652 L17.86755,14.946087 L17.86755,5.04014493 L8.988,0.0869565217 L0.1083,5.04043478 L0.1083,14.9465217 L0.1083,14.9465217 Z" id="Path"></path>
            </g>
        </g>
    </g>
</svg>