<?xml version="1.0" encoding="UTF-8"?>
<svg width="75px" height="75px" viewBox="0 0 75 75" version="1.1" xmlns="http://www.w3.org/2000/svg" xmlns:xlink="http://www.w3.org/1999/xlink">
    <!-- Generator: Sketch 63.1 (92452) - https://sketch.com -->
    <title>nodejs</title>
    <desc>Created with Sketch.</desc>
    <g id="Symbols" stroke="none" stroke-width="1" fill="none" fill-rule="evenodd">
        <g id="nodejs" fill="#F7F1E3" fill-rule="nonzero">
            <path d="M37.5,0 C55.2306152,0 70.0882324,12.3061523 73.9943848,28.8429199 C74.1755187,29.6069946 74.3329748,30.3800651 74.4660748,31.161311 L74.586,31.914 L74.4674986,31.2094112 C74.3805556,30.7204545 74.2844401,30.234729 74.1791735,29.752378 L74.0144129,29.0314002 L68.7260038,26 L60,31 L60,41 L68.7260038,46 L74.4130382,42.7409856 L68.7260038,39.4819712 L65.6855205,37.7409856 L65.6855205,34.257512 L68.7260038,32.5165264 L71.766487,34.257512 L71.766487,37.7409856 L74.964,35.908 L74.977105,36.1832031 C74.992513,36.6203776 75,37.0591797 75,37.5 C75,58.2106934 58.2106934,75 37.5,75 C18.5079459,75 2.81368156,60.8818303 0.340790353,42.5674922 L3.55387045,40.7386412 L3.55387045,34.0483429 L6.41350337,32.3998943 L9.27298731,34.0484916 L9.27298731,40.7387899 L15,44 L15,30.9487658 L6.41350337,26 L0.99159764,29.124558 C0.39659188,31.6755072 0.0592125519,34.3255388 0.00711464837,37.044874 L0,37.74 L0,37.5 C0,34.5643066 0.336767578,31.7066895 0.975,28.9652344 C4.83823242,12.3673828 19.725,0 37.5,0 Z M36.988,44.0869565 L28.1083,49.0404348 L28.1083,58.9465217 L31.10965,60.6205797 L31.2520556,60.6939322 C32.7335655,61.3954075 34.5025,60.3577174 34.5025,58.727971 L34.5025,58.727971 L34.5025,50.3953623 L33.27925,50.3953623 L33.27925,58.3992754 L33.2735143,58.5170957 C33.1901344,59.3659598 32.2141391,59.8723377 31.4263,59.4327536 L31.4263,59.4327536 L29.33155,58.2643478 L29.33155,49.7223188 L36.988,45.4517391 L44.64445,49.7223188 L44.64445,58.2643478 L36.988,62.5349275 L34.7824,61.3046377 L33.3421,61.8657971 L36.98785,63.8995652 L45.86755,58.946087 L45.86755,49.0401449 L36.988,44.0869565 Z M42.51175,52.7668116 C42.51175,51.0392754 41.0185,49.8810145 38.30335,50.1434783 C35.5882,50.405942 35.3566,52.1204348 35.758,53.4226087 C36.2332,54.9637681 41.66335,54.1766667 41.39185,55.7507246 C41.1862,56.9433333 39.661,56.8326087 38.0659,56.635942 C36.4708,56.4392754 36.6406,55.2588406 36.6406,55.2588406 L36.6406,55.2588406 L35.2831,55.2588406 C35.2831,56.0128986 35.82625,57.9476812 38.23585,57.9476812 C40.64545,57.9476812 42.20665,57.7837681 42.71575,56.2753623 C43.22485,54.7669565 42.2068,53.9143478 41.05285,53.5865217 C39.8989,53.2586957 36.8614,53.2586957 36.8614,52.4224638 C36.8614,51.5862319 37.9303,51.3895652 39.4915,51.3895652 C40.9224625,51.3895652 41.1843885,52.5743569 41.2181056,52.7718222 L41.2181056,52.7718222 L41.22235,52.7995652 Z M27.179961,25.8863666 L18.7368416,30.7611469 L19,31.218 L19,41 L19.345,40.443 L26.7,44.553 L27.1802742,45.3851722 L35.6233937,40.5103919 L35.601,40.473 L36,40.2500357 L36,30.7499643 L27.4999263,26 L27.307,26.107 L27.179961,25.8863666 Z M50.3497016,14 L50.3497016,27.0189857 L47.5007373,25.3736255 L39,30.2802192 L39,40.0934064 L47.5007373,45 L56,40.0934064 L56,17.0240127 L50.3497016,14 Z M47.5005898,31.9148166 L50.3342181,33.5508884 L50.3342181,36.8214102 L47.5005898,38.457482 L44.6669616,36.8214102 L44.6669616,33.5508884 L47.5005898,31.9148166 Z M68.500067,34 L67,34.9999613 L67,36.9998839 L68.500067,38 L70,36.9998839 L70,34.9999613 L68.500067,34 Z" id="Combined-Shape"></path>
        </g>
    </g>
</svg>