<?xml version="1.0" encoding="UTF-8"?>
<svg width="80px" height="75px" viewBox="0 0 80 75" version="1.1" xmlns="http://www.w3.org/2000/svg" xmlns:xlink="http://www.w3.org/1999/xlink">
    <!-- Generator: Sketch 63.1 (92452) - https://sketch.com -->
    <title>react</title>
    <desc>Created with Sketch.</desc>
    <g id="Page-1" stroke="none" stroke-width="1" fill="none" fill-rule="evenodd">
        <g id="Desktop-HD-Copy-4" transform="translate(-374.000000, -1426.000000)" fill="#F7F1E3">
            <g id="showcase" transform="translate(30.000000, 1030.000000)">
                <g id="technologies" transform="translate(220.000000, 200.000000)">
                    <g id="frontend">
                        <g id="react" transform="translate(124.000000, 196.000000)">
                            <g>
                                <path d="M46.6666667,37.5 C46.6666667,40.1794918 45.3052459,42.6554445 43.0952382,43.9951905 C40.8852304,45.3349365 38.1623886,45.3349365 35.9523809,43.9951905 C33.7423732,42.6554445 32.3809524,40.1794918 32.3809524,37.5 C32.3809524,33.3578643 35.5789185,30 39.5238095,30 C43.4687006,30 46.6666667,33.3578643 46.6666667,37.5 Z" id="Path" fill-rule="nonzero"></path>
                                <path d="M40,65.6775311 C45.7387319,71.5353522 51.394958,75 55.9541635,75 C57.4484339,75 58.8632544,74.6695753 60.039725,73.9285256 C64.1252865,71.4519441 65.6195569,65.2636982 64.2047364,56.4352624 C63.9694423,54.8665469 63.6546982,53.3010394 63.2605042,51.6489157 C64.8311688,51.1548826 66.2459893,50.6576415 67.6608098,50.1636084 C75.5996944,46.9459772 80,42.4900552 80,37.6235083 C80,32.6735532 75.5996944,28.2176312 67.6608098,25.0834082 C66.2459893,24.5059669 64.8311688,24.0119338 63.2605042,23.5981009 C63.6546982,21.9491852 63.9694423,20.3804697 64.2047364,18.8117541 C65.540107,9.81971 64.0488923,3.54805595 59.960275,1.0714744 C58.7807487,0.33042474 57.3659282,0 55.8747135,0 C51.394958,0 45.6562261,3.46464776 39.92055,9.32246888 C34.2612681,3.46464776 28.6019862,0 24.0458365,0 C22.5515661,0 21.1367456,0.33042474 19.960275,1.0714744 C15.8747135,3.54805595 14.3804431,9.73630181 15.7952636,18.5647376 C16.0305577,20.1334531 16.3453018,21.6989606 16.7394958,23.3510843 C15.1688312,23.8451174 13.7540107,24.3423585 12.3391902,24.8363916 C4.40030558,28.0540228 0,32.5099448 0,37.3764917 C0,42.3264468 4.40030558,46.7823688 12.3391902,49.9165918 C13.7540107,50.4940331 15.1688312,50.9880662 16.7394958,51.4018991 C16.3562964,52.9816164 16.0412315,54.5786914 15.7952636,56.1882459 C14.459893,65.0166816 15.9511077,71.2883357 19.960275,73.681509 C21.1398014,74.4257667 22.5546218,74.7529834 24.0458365,74.7529834 C28.605042,74.9165918 34.2643239,71.4519441 40,65.6775311 Z M35.5966387,54.5393302 C37.0114591,54.6227384 38.5057296,54.6227384 39.9969442,54.6227384 C41.4881589,54.6227384 42.9824293,54.6227384 44.3972498,54.5393302 C43.0116448,56.451366 41.5433374,58.2957645 39.9969442,60.0667265 C38.4496691,58.2965753 36.981327,56.4521333 35.5966387,54.5393302 L35.5966387,54.5393302 Z M25.8517953,46.0413191 C26.6371276,47.4432183 27.3460657,48.7649172 28.210848,50.0834082 C25.8905157,49.7708301 23.5834797,49.357714 21.2956455,48.8451174 C22.0045837,46.6187604 22.789916,44.3057872 23.7310924,41.9960221 C24.3605806,43.314513 25.0664629,44.7196202 25.8517953,46.0381111 L25.8517953,46.0413191 Z M21.2925898,26.1548826 C23.4927426,25.6608495 25.7723453,25.2470166 28.2077922,24.9165918 C27.4224599,26.2382908 26.6371276,27.5567817 25.8487395,28.9586809 C25.0603514,30.36058 24.3544691,31.682279 23.7280367,33.0841781 C22.7688089,30.8333997 21.95515,28.5173182 21.2925898,26.1516746 L21.2925898,26.1548826 Z M25.6165011,37.4598999 C26.6371276,35.2335429 27.737204,33.0039779 28.9961803,30.7776209 C30.1757066,28.6314641 31.5110772,26.4885153 32.8464477,24.3423585 C37.6102254,24.0099005 42.3897746,24.0099005 47.1535523,24.3423585 C48.5683728,26.4885153 49.8242934,28.6314641 51.0038197,30.7776209 C52.262796,33.0039779 53.3628724,35.2335429 54.3834989,37.4598999 C53.3504579,39.7380844 52.2228165,41.9676495 51.0038197,44.1421789 C49.8242934,46.2883357 48.4889228,48.4312845 47.1535523,50.5774413 C42.3897746,50.9098993 37.6102254,50.9098993 32.8464477,50.5774413 C31.4791954,48.4889072 30.1946787,46.3419907 28.9961803,44.1421789 C27.7778079,41.9672828 26.6501812,39.7377468 25.6165011,37.4598999 L25.6165011,37.4598999 Z M56.3483575,33.0039779 L54.2276547,28.8784807 C53.4423224,27.4765815 52.7333843,26.1548826 51.868602,24.8363916 C54.3040489,25.1668164 56.5836516,25.5806493 58.7838044,26.0746824 C58.0779221,28.3844476 57.289534,30.6942128 56.3483575,33.0071859 L56.3483575,33.0039779 Z M56.3483575,41.9158219 C57.2925898,44.2255871 58.0779221,46.5353522 58.7838044,48.7649172 C56.5836516,49.2589503 54.3040489,49.6727833 51.868602,50.003208 C52.6539343,48.681509 53.4392666,47.3630181 54.2276547,45.961119 C54.9365928,44.7228282 55.6424752,43.320929 56.3483575,41.9190299 L56.3483575,41.9158219 Z M58.1543163,70.547286 C57.5248281,70.961119 56.7394958,71.1247273 55.8747135,71.1247273 C52.0244461,71.1247273 47.2299465,67.8236879 42.5148969,62.8737328 C44.9172901,60.1397966 47.1485912,57.2454697 49.1948052,54.2089054 C52.7417625,53.9048775 56.2624431,53.3258568 59.7280367,52.4765815 C60.1222307,53.9618889 60.3575248,55.4471962 60.5928189,56.9325035 C61.6928953,63.9452072 60.8281131,68.9785705 58.157372,70.547286 L58.1543163,70.547286 Z M62.2429335,27.0627486 C71.0466005,29.7029385 76.3116883,33.7450276 76.3116883,37.4598999 C76.3116883,40.6775311 72.696715,43.8951623 66.3315508,46.4551521 C65.0725745,46.9491852 63.6608098,47.4464263 62.2459893,47.8570512 C61.1766236,44.3081109 59.8905366,40.8351986 58.3957219,37.4598999 C59.9663866,33.911844 61.3048128,30.4471962 62.2459893,27.0627486 L62.2429335,27.0627486 Z M55.9541635,3.7950725 C56.8189458,3.7950725 57.5248281,3.95868087 58.2337662,4.37251379 C60.8281131,5.94122931 61.7692895,10.8911844 60.6692131,17.9872963 C60.433919,19.3891954 60.1191749,20.8745028 59.8044309,22.4432183 C56.3248338,21.6716103 52.808865,21.0933645 49.2711994,20.7108944 C47.2488692,17.6554291 45.0162715,14.7594201 42.5912911,12.046067 C47.3063407,7.17631207 52.1008403,3.7950725 55.9511077,3.7950725 L55.9541635,3.7950725 Z M44.4003056,20.3804697 C42.9854851,20.2970615 41.4912147,20.2970615 40,20.2970615 C38.5087853,20.2970615 37.0145149,20.2970615 35.5996944,20.3804697 C37.0145149,18.4011292 38.5087853,16.5853972 40,14.8530733 C41.4942704,16.5853972 42.9854851,18.4845374 44.4003056,20.3804697 Z M21.842628,4.37251379 C22.4721161,3.95868087 23.2574484,3.7950725 24.1222307,3.7950725 C27.9724981,3.7950725 32.7669977,7.0961119 37.4820474,12.046067 C35.0789267,14.779343 32.8475864,17.6737209 30.802139,20.7108944 C27.2551817,21.0149224 23.7345011,21.5939431 20.2689076,22.4432183 C19.8747135,20.9579109 19.6394194,19.4726036 19.4041253,17.9872963 C18.3040489,10.9745926 19.1688312,6.0246375 21.8395722,4.37251379 L21.842628,4.37251379 Z M17.7570665,47.8570512 C8.95339954,45.2168613 3.68831169,41.1747722 3.68831169,37.4598999 C3.68831169,34.2422687 7.30328495,31.0246375 13.6684492,28.4678558 C14.9274255,27.9738227 16.3391902,27.4765815 17.7540107,27.0659566 C18.8233764,30.614897 20.1094634,34.0878092 21.6042781,37.4631079 C20.0336134,41.0111639 18.6951872,44.5592198 17.7540107,47.8602592 L17.7570665,47.8570512 Z M19.4071811,56.9325035 C19.6424752,55.5306044 19.9572193,54.0452971 20.2719633,52.4765815 C23.5721925,53.2208392 27.1107716,53.7982805 30.8051948,54.2089054 C32.827525,57.2643707 35.0601227,60.1603797 37.4851031,62.8737328 C32.7700535,67.7402797 27.9755539,71.1247273 24.1252865,71.1247273 C23.2605042,71.1247273 22.5546218,70.961119 21.8456837,70.547286 C19.1718869,68.9785705 18.3101604,63.9452072 19.4102368,56.9325035 L19.4071811,56.9325035 Z" id="Shape" fill-rule="nonzero"></path>
                            </g>
                        </g>
                    </g>
                </g>
            </g>
        </g>
    </g>
</svg>