<?xml version="1.0" encoding="UTF-8"?>
<svg width="84px" height="75px" viewBox="0 0 84 75" version="1.1" xmlns="http://www.w3.org/2000/svg" xmlns:xlink="http://www.w3.org/1999/xlink">
    <!-- Generator: Sketch 63.1 (92452) - https://sketch.com -->
    <title>react</title>
    <desc>Created with Sketch.</desc>
    <g id="Page-1" stroke="none" stroke-width="1" fill="none" fill-rule="evenodd">
        <g id="Desktop-HD-Copy-4" transform="translate(-374.000000, -1426.000000)" fill="#F7F1E3">
            <g id="showcase" transform="translate(30.000000, 1030.000000)">
                <g id="technologies" transform="translate(220.000000, 200.000000)">
                    <g id="frontend">
                        <g id="react" transform="translate(124.000000, 196.000000)">
                            <g>
                                <path d="M49,37.5 C49,40.1794918 47.5705082,42.6554445 45.2500001,43.9951905 C42.929492,45.3349365 40.070508,45.3349365 37.7499999,43.9951905 C35.4294918,42.6554445 34,40.1794918 34,37.5 C34,33.3578643 37.3578644,30 41.5,30 C45.6421356,30 49,33.3578643 49,37.5 Z" id="Path" fill-rule="nonzero"></path>
                                <path d="M42,65.6775311 C48.0256684,71.5353522 53.9647059,75 58.7518717,75 C60.3208556,75 61.8064171,74.6695753 63.0417112,73.9285256 C67.3315508,71.4519441 68.9005348,65.2636982 67.4149733,56.4352624 C67.1679144,54.8665469 66.8374332,53.3010394 66.4235294,51.6489157 C68.0727273,51.1548826 69.5582888,50.6576415 71.0438503,50.1636084 C79.3796791,46.9459772 84,42.4900552 84,37.6235083 C84,32.6735532 79.3796791,28.2176312 71.0438503,25.0834082 C69.5582888,24.5059669 68.0727273,24.0119338 66.4235294,23.5981009 C66.8374332,21.9491852 67.1679144,20.3804697 67.4149733,18.8117541 C68.8171123,9.81971 67.2513369,3.54805595 62.9582888,1.0714744 C61.7197861,0.33042474 60.2342246,0 58.6684492,0 C53.9647059,0 47.9390374,3.46464776 41.9165775,9.32246888 C35.9743316,3.46464776 30.0320856,0 25.2481283,0 C23.6791444,0 22.1935829,0.33042474 20.9582888,1.0714744 C16.6684492,3.54805595 15.0994652,9.73630181 16.5850267,18.5647376 C16.8320856,20.1334531 17.1625668,21.6989606 17.5764706,23.3510843 C15.9272727,23.8451174 14.4417112,24.3423585 12.9561497,24.8363916 C4.62032086,28.0540228 0,32.5099448 0,37.3764917 C0,42.3264468 4.62032086,46.7823688 12.9561497,49.9165918 C14.4417112,50.4940331 15.9272727,50.9880662 17.5764706,51.4018991 C17.1741112,52.9816164 16.8432931,54.5786914 16.5850267,56.1882459 C15.1828877,65.0166816 16.7486631,71.2883357 20.9582888,73.681509 C22.1967914,74.4257667 23.6823529,74.7529834 25.2481283,74.7529834 C30.0352941,74.9165918 35.9775401,71.4519441 42,65.6775311 Z M37.3764706,54.5393302 C38.8620321,54.6227384 40.431016,54.6227384 41.9967914,54.6227384 C43.5625668,54.6227384 45.1315508,54.6227384 46.6171123,54.5393302 C45.1622271,56.451366 43.6205043,58.2957645 41.9967914,60.0667265 C40.3721525,58.2965753 38.8303934,56.4521333 37.3764706,54.5393302 L37.3764706,54.5393302 Z M27.144385,46.0413191 C27.968984,47.4432183 28.713369,48.7649172 29.6213904,50.0834082 C27.1850415,49.7708301 24.7626537,49.357714 22.3604278,48.8451174 C23.1048128,46.6187604 23.9294118,44.3057872 24.9176471,41.9960221 C25.5786096,43.314513 26.3197861,44.7196202 27.144385,46.0381111 L27.144385,46.0413191 Z M22.3572193,26.1548826 C24.6673797,25.6608495 27.0609626,25.2470166 29.6181818,24.9165918 C28.7935829,26.2382908 27.968984,27.5567817 27.1411765,28.9586809 C26.313369,30.36058 25.5721925,31.682279 24.9144385,33.0841781 C23.9072494,30.8333997 23.0529075,28.5173182 22.3572193,26.1516746 L22.3572193,26.1548826 Z M26.8973262,37.4598999 C27.968984,35.2335429 29.1240642,33.0039779 30.4459893,30.7776209 C31.684492,28.6314641 33.086631,26.4885153 34.4887701,24.3423585 C39.4907366,24.0099005 44.5092634,24.0099005 49.5112299,24.3423585 C50.9967914,26.4885153 52.315508,28.6314641 53.5540107,30.7776209 C54.8759358,33.0039779 56.031016,35.2335429 57.1026738,37.4598999 C56.0179808,39.7380844 54.8339573,41.9676495 53.5540107,44.1421789 C52.315508,46.2883357 50.913369,48.4312845 49.5112299,50.5774413 C44.5092634,50.9098993 39.4907366,50.9098993 34.4887701,50.5774413 C33.0531552,48.4889072 31.7044126,46.3419907 30.4459893,44.1421789 C29.1666983,41.9672828 27.9826902,39.7377468 26.8973262,37.4598999 L26.8973262,37.4598999 Z M59.1657754,33.0039779 L56.9390374,28.8784807 C56.1144385,27.4765815 55.3700535,26.1548826 54.4620321,24.8363916 C57.0192513,25.1668164 59.4128342,25.5806493 61.7229947,26.0746824 C60.9818182,28.3844476 60.1540107,30.6942128 59.1657754,33.0071859 L59.1657754,33.0039779 Z M59.1657754,41.9158219 C60.1572193,44.2255871 60.9818182,46.5353522 61.7229947,48.7649172 C59.4128342,49.2589503 57.0192513,49.6727833 54.4620321,50.003208 C55.286631,48.681509 56.1112299,47.3630181 56.9390374,45.961119 C57.6834225,44.7228282 58.4245989,43.320929 59.1657754,41.9190299 L59.1657754,41.9158219 Z M61.0620321,70.547286 C60.4010695,70.961119 59.5764706,71.1247273 58.6684492,71.1247273 C54.6256684,71.1247273 49.5914439,67.8236879 44.6406417,62.8737328 C47.1631546,60.1397966 49.5060207,57.2454697 51.6545455,54.2089054 C55.3788506,53.9048775 59.0755653,53.3258568 62.7144385,52.4765815 C63.1283422,53.9618889 63.3754011,55.4471962 63.6224599,56.9325035 C64.7775401,63.9452072 63.8695187,68.9785705 61.0652406,70.547286 L61.0620321,70.547286 Z M65.3550802,27.0627486 C74.5989305,29.7029385 80.1272727,33.7450276 80.1272727,37.4598999 C80.1272727,40.6775311 76.3315508,43.8951623 69.6481283,46.4551521 C68.3262032,46.9491852 66.8438503,47.4464263 65.3582888,47.8570512 C64.2354548,44.3081109 62.8850634,40.8351986 61.315508,37.4598999 C62.9647059,33.911844 64.3700535,30.4471962 65.3582888,27.0627486 L65.3550802,27.0627486 Z M58.7518717,3.7950725 C59.659893,3.7950725 60.4010695,3.95868087 61.1454545,4.37251379 C63.8695187,5.94122931 64.857754,10.8911844 63.7026738,17.9872963 C63.455615,19.3891954 63.1251337,20.8745028 62.7946524,22.4432183 C59.1410754,21.6716103 55.4493083,21.0933645 51.7347594,20.7108944 C49.6113127,17.6554291 47.267085,14.7594201 44.7208556,12.046067 C49.6716578,7.17631207 54.7058824,3.7950725 58.7486631,3.7950725 L58.7518717,3.7950725 Z M46.6203209,20.3804697 C45.1347594,20.2970615 43.5657754,20.2970615 42,20.2970615 C40.4342246,20.2970615 38.8652406,20.2970615 37.3796791,20.3804697 C38.8652406,18.4011292 40.4342246,16.5853972 42,14.8530733 C43.568984,16.5853972 45.1347594,18.4845374 46.6203209,20.3804697 Z M22.9347594,4.37251379 C23.5957219,3.95868087 24.4203209,3.7950725 25.3283422,3.7950725 C29.371123,3.7950725 34.4053476,7.0961119 39.3561497,12.046067 C36.832873,14.779343 34.4899657,17.6737209 32.342246,20.7108944 C28.6179408,21.0149224 24.9212262,21.5939431 21.2823529,22.4432183 C20.8684492,20.9579109 20.6213904,19.4726036 20.3743316,17.9872963 C19.2192513,10.9745926 20.1272727,6.0246375 22.9315508,4.37251379 L22.9347594,4.37251379 Z M18.6449198,47.8570512 C9.40106952,45.2168613 3.87272727,41.1747722 3.87272727,37.4598999 C3.87272727,34.2422687 7.6684492,31.0246375 14.3518717,28.4678558 C15.6737968,27.9738227 17.1561497,27.4765815 18.6417112,27.0659566 C19.7645452,30.614897 21.1149366,34.0878092 22.684492,37.4631079 C21.0352941,41.0111639 19.6299465,44.5592198 18.6417112,47.8602592 L18.6449198,47.8570512 Z M20.3775401,56.9325035 C20.6245989,55.5306044 20.9550802,54.0452971 21.2855615,52.4765815 C24.7508021,53.2208392 28.4663102,53.7982805 32.3454545,54.2089054 C34.4689012,57.2643707 36.8131289,60.1603797 39.3593583,62.8737328 C34.4085561,67.7402797 29.3743316,71.1247273 25.3315508,71.1247273 C24.4235294,71.1247273 23.6823529,70.961119 22.9379679,70.547286 C20.1304813,68.9785705 19.2256684,63.9452072 20.3807487,56.9325035 L20.3775401,56.9325035 Z" id="Shape" fill-rule="nonzero"></path>
                            </g>
                        </g>
                    </g>
                </g>
            </g>
        </g>
    </g>
</svg>