<?xml version="1.0" encoding="UTF-8"?>
<svg width="25px" height="25px" viewBox="0 0 25 25" version="1.1" xmlns="http://www.w3.org/2000/svg" xmlns:xlink="http://www.w3.org/1999/xlink">
    <!-- Generator: Sketch 63.1 (92452) - https://sketch.com -->
    <title>twitter - mobile</title>
    <desc>Created with Sketch.</desc>
    <g id="twitter---mobile" stroke="none" stroke-width="1" fill="none" fill-rule="evenodd">
        <g id="twitter" fill="#071E3D" fill-rule="nonzero">
            <g id="Shape">
                <path d="M12.5005076,0 C5.59667398,0 0,5.59768925 0,12.5005076 C0,19.4043413 5.59667398,25 12.5005076,25 C19.4043413,25 25,19.4043413 25,12.5005076 C25,5.59768925 19.4038337,0 12.5005076,0 Z M18.79721,9.98010071 C18.8038093,10.1151316 18.8063475,10.2506701 18.8063475,10.3877315 C18.8063475,14.5508447 15.6376909,19.350532 9.84354695,19.350532 C8.06479451,19.350532 6.40838207,18.829191 5.01441683,17.9357537 C5.26112736,17.9646889 5.51139133,17.9794103 5.76571637,17.9794103 C7.24191845,17.9794103 8.60034925,17.4758366 9.67805799,16.6311322 C8.29982943,16.6052429 7.13683804,15.6940383 6.73580653,14.4427185 C6.9276925,14.4802835 7.12516244,14.499066 7.32821637,14.499066 C7.61553769,14.499066 7.89372157,14.461501 8.15819932,14.3889092 C6.71651641,14.0995573 5.63068551,12.8253939 5.63068551,11.3004589 C5.63068551,11.2867528 5.63068551,11.2735543 5.63119314,11.2598481 C6.05557586,11.4958983 6.54138239,11.6375284 7.05815465,11.6542804 C6.21243502,11.0882675 5.65657489,10.1252843 5.65657489,9.03183886 C5.65657489,8.45465806 5.81191114,7.9130117 6.08298814,7.44801819 C7.63685835,9.35367934 9.95827242,10.608045 12.5766529,10.7390148 C12.5228436,10.5090562 12.4949237,10.2679297 12.4949237,10.0212191 C12.4949237,8.28206222 13.9051332,6.87134503 15.6453054,6.87134503 C16.5514336,6.87134503 17.3697409,7.25410169 17.9443835,7.86580166 C18.6621792,7.72518681 19.3363182,7.46223197 19.9449724,7.10130361 C19.7089222,7.83737411 19.2099172,8.45465806 18.5591293,8.84401397 C19.1972263,8.76786875 19.8043575,8.59831871 20.3688475,8.34805474 C19.9475106,8.98107537 19.4129711,9.53592024 18.79721,9.98010071 Z"></path>
            </g>
        </g>
    </g>
</svg>